<svg width="24" height="25" viewBox="0 0 24 25" fill="none" xmlns="http://www.w3.org/2000/svg">
<path d="M12 23.45C11.7167 23.45 11.479 23.3543 11.287 23.163C11.095 22.9717 10.9994 22.734 11 22.45V21.45C8.91672 21.2167 7.12905 20.3543 5.63705 18.863C4.14505 17.3717 3.28272 15.584 3.05005 13.5H2.05005C1.76672 13.5 1.52938 13.404 1.33805 13.212C1.14672 13.02 1.05072 12.7827 1.05005 12.5C1.05005 12.2167 1.14605 11.979 1.33805 11.787C1.53005 11.595 1.76738 11.4993 2.05005 11.5H3.05005C3.28338 9.41667 4.14605 7.629 5.63805 6.137C7.13005 4.645 8.91738 3.78267 11 3.55V2.55C11 2.26667 11.096 2.02933 11.288 1.838C11.48 1.64667 11.7174 1.55067 12 1.55C12.2834 1.55 12.521 1.646 12.713 1.838C12.905 2.03 13.0007 2.26733 13 2.55V3.55C15.0834 3.78333 16.8711 4.646 18.3631 6.138C19.8551 7.63 20.7174 9.41733 20.9501 11.5H21.9501C22.2334 11.5 22.4711 11.596 22.663 11.788C22.855 11.98 22.9507 12.2173 22.9501 12.5C22.9501 12.7833 22.8544 13.021 22.663 13.213C22.4717 13.405 22.2341 13.5007 21.9501 13.5H20.9501C20.7167 15.5833 19.8544 17.371 18.3631 18.863C16.8717 20.355 15.084 21.2173 13 21.45V22.45C13 22.7333 12.904 22.971 12.712 23.163C12.52 23.355 12.2827 23.4507 12 23.45ZM12 19.5C13.9334 19.5 15.5834 18.8167 16.95 17.45C18.3167 16.0833 19 14.4333 19 12.5C19 10.5667 18.3167 8.91667 16.95 7.55C15.5834 6.18333 13.9334 5.5 12 5.5C10.0667 5.5 8.41672 6.18333 7.05005 7.55C5.68338 8.91667 5.00005 10.5667 5.00005 12.5C5.00005 14.4333 5.68338 16.0833 7.05005 17.45C8.41672 18.8167 10.0667 19.5 12 19.5ZM12 16.5C10.9 16.5 9.95838 16.1083 9.17505 15.325C8.39172 14.5417 8.00005 13.6 8.00005 12.5C8.00005 11.4 8.39172 10.4583 9.17505 9.675C9.95838 8.89167 10.9 8.5 12 8.5C13.1 8.5 14.0417 8.89167 14.825 9.675C15.6084 10.4583 16 11.4 16 12.5C16 13.6 15.6084 14.5417 14.825 15.325C14.0417 16.1083 13.1 16.5 12 16.5Z" fill="#DADADA"/>
</svg>
