<svg width="211" height="38" viewBox="0 0 211 38" fill="none" xmlns="http://www.w3.org/2000/svg">
<path d="M187.4 1.35214L210.056 17.4201C210.399 17.6635 210.643 17.9273 210.787 18.2113C210.929 18.4953 211 18.7996 211 19.1243C211 19.4489 210.929 19.7532 210.787 20.0372C210.643 20.3212 210.399 20.585 210.056 20.8284L187.4 36.8964C186.77 37.3427 185.984 37.5764 185.041 37.5975C184.096 37.617 183.28 37.3833 182.594 36.8964C181.907 36.45 181.549 35.8925 181.519 35.2238C181.492 34.5535 181.821 33.9749 182.508 33.488L199.329 21.5588L3.43279 21.5588C2.46016 21.5588 1.6443 21.3259 0.985201 20.8601C0.328402 20.3926 2.1804e-06 19.814 2.26497e-06 19.1243C2.34954e-06 18.4345 0.328402 17.8567 0.985201 17.3909C1.6443 16.9234 2.46016 16.6897 3.43279 16.6897L199.329 16.6897L182.508 4.76049C181.879 4.31416 181.549 3.7461 181.519 3.05632C181.492 2.36653 181.821 1.79848 182.508 1.35214C183.137 0.865236 183.938 0.621783 184.911 0.621783C185.883 0.621783 186.713 0.865237 187.4 1.35214Z" fill="#232323"/>
</svg>
