<svg width="23" height="23" viewBox="0 0 23 23" fill="none" xmlns="http://www.w3.org/2000/svg">
<path d="M6.52395 0C6.73745 0 6.9422 0.0848123 7.09317 0.235779C7.24414 0.386746 7.32895 0.591501 7.32895 0.805V2.31035H15.9735V0.81535C15.9735 0.601851 16.0583 0.397096 16.2093 0.246129C16.3602 0.0951623 16.565 0.01035 16.7785 0.01035C16.992 0.01035 17.1968 0.0951623 17.3477 0.246129C17.4987 0.397096 17.5835 0.601851 17.5835 0.81535V2.31035H20.7C21.3098 2.31035 21.8946 2.55251 22.3259 2.9836C22.7572 3.41468 22.9997 3.9994 23 4.6092V20.7011C22.9997 21.3109 22.7572 21.8957 22.3259 22.3268C21.8946 22.7578 21.3098 23 20.7 23H2.3C1.6902 23 1.10536 22.7578 0.674061 22.3268C0.24276 21.8957 0.000304899 21.3109 0 20.7011L0 4.6092C0.000304899 3.9994 0.24276 3.41468 0.674061 2.9836C1.10536 2.55251 1.6902 2.31035 2.3 2.31035H5.71895V0.80385C5.71925 0.59055 5.8042 0.38609 5.95514 0.235372C6.10607 0.0846542 6.31065 -2.17653e-07 6.52395 0ZM1.61 8.9033V20.7011C1.61 20.7918 1.62785 20.8815 1.66252 20.9652C1.6972 21.0489 1.74802 21.125 1.8121 21.1891C1.87617 21.2531 1.95223 21.304 2.03595 21.3386C2.11966 21.3733 2.20939 21.3911 2.3 21.3911H20.7C20.7906 21.3911 20.8803 21.3733 20.9641 21.3386C21.0478 21.304 21.1238 21.2531 21.1879 21.1891C21.252 21.125 21.3028 21.0489 21.3375 20.9652C21.3722 20.8815 21.39 20.7918 21.39 20.7011V8.9194L1.61 8.9033ZM7.66705 16.8118V18.7277H5.75V16.8118H7.66705ZM12.4579 16.8118V18.7277H10.542V16.8118H12.4579ZM17.25 16.8118V18.7277H15.3329V16.8118H17.25ZM7.66705 12.2383V14.1542H5.75V12.2383H7.66705ZM12.4579 12.2383V14.1542H10.542V12.2383H12.4579ZM17.25 12.2383V14.1542H15.3329V12.2383H17.25ZM5.71895 3.9192H2.3C2.20939 3.9192 2.11966 3.93705 2.03595 3.97172C1.95223 4.0064 1.87617 4.05722 1.8121 4.1213C1.74802 4.18537 1.6972 4.26143 1.66252 4.34515C1.62785 4.42886 1.61 4.51859 1.61 4.6092V7.29445L21.39 7.31055V4.6092C21.39 4.51859 21.3722 4.42886 21.3375 4.34515C21.3028 4.26143 21.252 4.18537 21.1879 4.1213C21.1238 4.05722 21.0478 4.0064 20.9641 3.97172C20.8803 3.93705 20.7906 3.9192 20.7 3.9192H17.5835V4.98755C17.5835 5.20105 17.4987 5.4058 17.3477 5.55677C17.1968 5.70774 16.992 5.79255 16.7785 5.79255C16.565 5.79255 16.3602 5.70774 16.2093 5.55677C16.0583 5.4058 15.9735 5.20105 15.9735 4.98755V3.9192H7.32895V4.9772C7.32895 5.1907 7.24414 5.39545 7.09317 5.54642C6.9422 5.69739 6.73745 5.7822 6.52395 5.7822C6.31045 5.7822 6.1057 5.69739 5.95473 5.54642C5.80376 5.39545 5.71895 5.1907 5.71895 4.9772V3.9192Z" fill="#FFF5E1"/>
</svg>
