<svg width="48" height="48" viewBox="0 0 48 48" fill="none" xmlns="http://www.w3.org/2000/svg">
<path d="M23.6413 39.4015C27.8214 39.4015 31.8302 37.741 34.786 34.7852C37.7417 31.8295 39.4022 27.8206 39.4022 23.6406C39.4022 19.4605 37.7417 15.4517 34.786 12.4959C31.8302 9.5402 27.8214 7.87968 23.6413 7.87968C19.4613 7.87968 15.4524 9.5402 12.4967 12.4959C9.54093 15.4517 7.88041 19.4605 7.88041 23.6406C7.88041 27.8206 9.54093 31.8295 12.4967 34.7852C15.4524 37.741 19.4613 39.4015 23.6413 39.4015ZM23.6413 3.93945C26.2285 3.93945 28.7904 4.44904 31.1806 5.43911C33.5709 6.42919 35.7427 7.88036 37.5721 9.70978C39.4015 11.5392 40.8527 13.711 41.8428 16.1013C42.8329 18.4915 43.3424 21.0534 43.3424 23.6406C43.3424 28.8656 41.2668 33.8767 37.5721 37.5714C33.8774 41.2661 28.8664 43.3417 23.6413 43.3417C12.7466 43.3417 3.94019 34.4762 3.94019 23.6406C3.94019 18.4155 6.01583 13.4045 9.71051 9.70978C13.4052 6.0151 18.4162 3.93945 23.6413 3.93945ZM24.6264 13.79V24.1331L33.4919 29.3933L32.0143 31.8165L21.6712 25.6107V13.79H24.6264Z" fill="#FFF5E1"/>
</svg>
