<svg width="121" height="121" viewBox="0 0 121 121" fill="none" xmlns="http://www.w3.org/2000/svg">
<g clip-path="url(#clip0_23_738)">
<path d="M80.6668 70.5832H88.2293V84.8007L100.531 91.9094L96.7497 98.4636L80.6668 89.1869V70.5832ZM121 85.7082C121 95.0681 117.282 104.045 110.663 110.663C104.045 117.282 95.0684 121 85.7085 121C71.6422 121 59.4918 112.732 53.7947 100.833H20.1668C17.4926 100.833 14.9278 99.7708 13.0368 97.8798C11.1458 95.9888 10.0835 93.4241 10.0835 90.7498V30.2498C10.0835 24.6536 14.5706 20.1665 20.1668 20.1665H100.833C103.508 20.1665 106.072 21.2289 107.963 23.1198C109.854 25.0108 110.917 27.5756 110.917 30.2498V61.004C117.168 67.3565 121 76.0786 121 85.7082ZM85.7085 60.4998C79.0228 60.4998 72.611 63.1557 67.8835 67.8832C63.156 72.6107 60.5002 79.0225 60.5002 85.7082C60.5002 92.3938 63.156 98.8057 67.8835 103.533C72.611 108.261 79.0228 110.917 85.7085 110.917C92.3942 110.917 98.806 108.261 103.533 103.533C108.261 98.8057 110.917 92.3938 110.917 85.7082C110.917 79.0225 108.261 72.6107 103.533 67.8832C98.806 63.1557 92.3942 60.4998 85.7085 60.4998ZM100.833 50.4165V35.2915H20.1668V50.4165H100.833Z" fill="#FF6602"/>
</g>
<defs>
<clipPath id="clip0_23_738">
<rect width="121" height="121" fill="white"/>
</clipPath>
</defs>
</svg>
