<svg width="111" height="111" viewBox="0 0 111 111" fill="none" xmlns="http://www.w3.org/2000/svg">
<path d="M50.4123 9.7124L96.1952 16.2568L102.735 62.0443L60.2219 104.557C59.3546 105.424 58.1784 105.911 56.952 105.911C55.7257 105.911 54.5495 105.424 53.6822 104.557L7.89466 58.7698C7.02761 57.9025 6.54053 56.7263 6.54053 55.4999C6.54053 54.2735 7.02761 53.0973 7.89466 52.23L50.4123 9.7124ZM63.4918 48.9602C64.3509 49.819 65.3708 50.5001 66.4931 50.9648C67.6155 51.4295 68.8184 51.6685 70.0332 51.6683C71.2479 51.6681 72.4508 51.4286 73.573 50.9636C74.6952 50.4985 75.7148 49.817 76.5736 48.9578C77.4324 48.0987 78.1136 47.0789 78.5783 45.9565C79.0429 44.8341 79.282 43.6312 79.2818 42.4165C79.2816 41.2017 79.0421 39.9989 78.577 38.8767C78.112 37.7545 77.4304 36.7348 76.5713 35.876C75.7122 35.0172 74.6923 34.336 73.5699 33.8714C72.4476 33.4067 71.2447 33.1676 70.0299 33.1679C67.5766 33.1683 65.2239 34.1433 63.4895 35.8783C61.755 37.6134 60.7809 39.9664 60.7813 42.4197C60.7817 44.873 61.7567 47.2257 63.4918 48.9602Z" fill="#FF6602"/>
</svg>
