<svg width="259" height="258" viewBox="0 0 259 258" fill="none" xmlns="http://www.w3.org/2000/svg">
<rect width="258.096" height="257.133" rx="128.566" fill="#FF6602"/>
<path d="M154.25 85.4443C154.25 84.2656 153.756 83.1352 152.877 82.3017C151.998 81.4682 150.806 81 149.562 81H108.938L108.3 81.0415C107.178 81.1875 106.149 81.7139 105.405 82.5233C104.66 83.3327 104.25 84.3704 104.25 85.4443V104.703H93.3125C87.9253 104.703 82.7587 106.732 78.9494 110.344C75.1401 113.956 73 118.854 73 123.962V162.479C73 167.587 75.1401 172.486 78.9494 176.097C82.7587 179.709 87.9253 181.738 93.3125 181.738H165.188C170.575 181.738 175.741 179.709 179.551 176.097C183.36 172.486 185.5 167.587 185.5 162.479V123.962C185.5 118.854 183.36 113.956 179.551 110.344C175.741 106.732 170.575 104.703 165.188 104.703H154.25V85.4443ZM113.625 89.8887H144.875V104.703H113.625V89.8887ZM126.125 156.554V146.184H115.188C113.944 146.184 112.752 145.715 111.873 144.882C110.994 144.048 110.5 142.918 110.5 141.739C110.5 140.561 110.994 139.43 111.873 138.597C112.752 137.763 113.944 137.295 115.188 137.295H126.125V126.925C126.125 125.746 126.619 124.616 127.498 123.782C128.377 122.949 129.569 122.48 130.812 122.48C132.056 122.48 133.248 122.949 134.127 123.782C135.006 124.616 135.5 125.746 135.5 126.925V137.295H146.438C147.681 137.295 148.873 137.763 149.752 138.597C150.631 139.43 151.125 140.561 151.125 141.739C151.125 142.918 150.631 144.048 149.752 144.882C148.873 145.715 147.681 146.184 146.438 146.184H135.5V156.554C135.5 157.732 135.006 158.863 134.127 159.696C133.248 160.53 132.056 160.998 130.812 160.998C129.569 160.998 128.377 160.53 127.498 159.696C126.619 158.863 126.125 157.732 126.125 156.554Z" fill="#FFF5E1"/>
</svg>
