<svg width="28" height="29" viewBox="0 0 28 29" fill="none" xmlns="http://www.w3.org/2000/svg">
<path d="M14.0001 5.16667C15.2378 5.16667 16.4247 5.65833 17.2999 6.5335C18.1751 7.40867 18.6667 8.59566 18.6667 9.83333C18.6667 11.071 18.1751 12.258 17.2999 13.1332C16.4247 14.0083 15.2378 14.5 14.0001 14.5C12.7624 14.5 11.5754 14.0083 10.7002 13.1332C9.82508 12.258 9.33341 11.071 9.33341 9.83333C9.33341 8.59566 9.82508 7.40867 10.7002 6.5335C11.5754 5.65833 12.7624 5.16667 14.0001 5.16667ZM14.0001 7.5C13.3812 7.5 12.7878 7.74583 12.3502 8.18342C11.9126 8.621 11.6667 9.2145 11.6667 9.83333C11.6667 10.4522 11.9126 11.0457 12.3502 11.4832C12.7878 11.9208 13.3812 12.1667 14.0001 12.1667C14.6189 12.1667 15.2124 11.9208 15.65 11.4832C16.0876 11.0457 16.3334 10.4522 16.3334 9.83333C16.3334 9.2145 16.0876 8.621 15.65 8.18342C15.2124 7.74583 14.6189 7.5 14.0001 7.5ZM14.0001 15.6667C17.1151 15.6667 23.3334 17.2183 23.3334 20.3333V23.8333H4.66675V20.3333C4.66675 17.2183 10.8851 15.6667 14.0001 15.6667ZM14.0001 17.8833C10.5351 17.8833 6.88341 19.5867 6.88341 20.3333V21.6167H21.1167V20.3333C21.1167 19.5867 17.4651 17.8833 14.0001 17.8833Z" fill="#DADADA"/>
</svg>
