<svg width="175" height="176" viewBox="0 0 175 176" fill="none" xmlns="http://www.w3.org/2000/svg">
<path fill-rule="evenodd" clip-rule="evenodd" d="M0 88C0 39.3989 39.1781 0 87.5 0C135.825 0 175 39.4019 175 88C175 136.601 135.822 176 87.5 176C39.1751 176 0 136.598 0 88ZM9.72222 88C9.72222 44.7991 44.5351 9.77778 87.5 9.77778C130.455 9.77778 165.278 44.7896 165.278 88C165.278 131.201 130.465 166.222 87.5 166.222C44.5445 166.222 9.72222 131.21 9.72222 88Z" fill="#FFF5E1"/>
<path fill-rule="evenodd" clip-rule="evenodd" d="M30.1362 119.712C42.7873 114.007 63.5143 109.314 97.5562 118.231C118.388 123.688 133.947 122.98 145.393 119.712C145.393 120.32 129.03 154.731 88.0651 154.731C47.0997 154.731 30.1362 119.584 30.1362 119.712Z" fill="#FF6602"/>
<path d="M58.62 29.12C60.16 29.1933 62.1767 29.2667 64.67 29.34C67.1633 29.4133 69.62 29.45 72.04 29.45C75.4867 29.45 78.7867 29.4133 81.94 29.34C85.0933 29.2667 87.33 29.23 88.65 29.23C94.59 29.23 99.5033 30.0733 103.39 31.76C107.35 33.4467 110.283 35.7567 112.19 38.69C114.17 41.55 115.16 44.7767 115.16 48.37C115.16 50.57 114.72 52.9167 113.84 55.41C112.96 57.9033 111.42 60.25 109.22 62.45C107.093 64.65 104.16 66.4833 100.42 67.95C96.68 69.3433 91.95 70.04 86.23 70.04H75.67V67.84H85.13C90.3367 67.84 94.2967 67.0333 97.01 65.42C99.7967 63.7333 101.667 61.5333 102.62 58.82C103.647 56.0333 104.16 52.9533 104.16 49.58C104.16 43.7867 102.767 39.3133 99.98 36.16C97.2667 32.9333 92.5733 31.32 85.9 31.32C82.5267 31.32 80.3267 31.9433 79.3 33.19C78.2733 34.4367 77.76 36.9667 77.76 40.78V95.34C77.76 97.98 77.98 99.96 78.42 101.28C78.86 102.6 79.7033 103.48 80.95 103.92C82.27 104.36 84.1767 104.653 86.67 104.8V107C84.9833 106.853 82.8567 106.78 80.29 106.78C77.7967 106.707 75.2667 106.67 72.7 106.67C69.84 106.67 67.1633 106.707 64.67 106.78C62.1767 106.78 60.16 106.853 58.62 107V104.8C61.1133 104.653 62.9833 104.36 64.23 103.92C65.55 103.48 66.43 102.6 66.87 101.28C67.31 99.96 67.53 97.98 67.53 95.34V40.78C67.53 38.0667 67.31 36.0867 66.87 34.84C66.43 33.52 65.55 32.64 64.23 32.2C62.9833 31.6867 61.1133 31.3933 58.62 31.32V29.12ZM76.11 68.17C80.07 68.3167 83.1867 68.5 85.46 68.72C87.7333 68.8667 89.5667 69.0133 90.96 69.16C92.4267 69.3067 93.82 69.49 95.14 69.71C100.053 70.5167 103.573 72.02 105.7 74.22C107.9 76.3467 109.513 79.6833 110.54 84.23L113.29 95.45C114.023 98.6767 114.757 101.023 115.49 102.49C116.297 103.883 117.507 104.543 119.12 104.47C120.367 104.397 121.393 103.993 122.2 103.26C123.08 102.527 123.997 101.537 124.95 100.29L126.6 101.5C125.06 103.773 123.447 105.533 121.76 106.78C120.147 107.953 117.837 108.54 114.83 108.54C112.117 108.54 109.733 107.733 107.68 106.12C105.627 104.507 104.087 101.353 103.06 96.66L100.64 85.66C99.98 82.5067 99.21 79.7933 98.33 77.52C97.5233 75.1733 96.35 73.34 94.81 72.02C93.3433 70.7 91.1433 70.04 88.21 70.04H76.33L76.11 68.17Z" fill="#FFF5E1"/>
</svg>
