<svg width="31" height="31" viewBox="0 0 31 31" fill="none" xmlns="http://www.w3.org/2000/svg">
<path d="M29.8077 9.02648H22.5644L23.8268 1.50216C23.8775 1.16762 23.8049 0.824865 23.6247 0.547774C23.4445 0.270682 23.1711 0.0814392 22.8634 0.0208284C22.5557 -0.0397824 22.2384 0.0330924 21.9798 0.223747C21.7212 0.414402 21.542 0.707572 21.4809 1.04007L20.1396 9.02648H13.026L14.2883 1.50216C14.339 1.16762 14.2665 0.824865 14.0863 0.547774C13.9061 0.270682 13.6326 0.0814392 13.3249 0.0208284C13.0172 -0.0397824 12.6999 0.0330924 12.4413 0.223747C12.1827 0.414402 12.0035 0.707572 11.9425 1.04007L10.6026 9.02648H3.57692C3.2607 9.02648 2.95744 9.16266 2.73383 9.40506C2.51023 9.64746 2.38462 9.97623 2.38462 10.319C2.38462 10.6618 2.51023 10.9906 2.73383 11.233C2.95744 11.4754 3.2607 11.6116 3.57692 11.6116H10.1689L8.86779 19.367H1.19231C0.876088 19.367 0.57282 19.5031 0.349219 19.7455C0.125618 19.9879 0 20.3167 0 20.6595C0 21.0023 0.125618 21.3311 0.349219 21.5735C0.57282 21.8159 0.876088 21.9521 1.19231 21.9521H8.43558L7.17322 29.4764C7.11674 29.8136 7.18613 30.1614 7.36612 30.4431C7.54611 30.7249 7.82197 30.9177 8.13303 30.979C8.20332 30.9931 8.27467 31.0001 8.34615 31C8.62512 30.9996 8.89512 30.8931 9.10916 30.6992C9.3232 30.5052 9.46773 30.236 9.5176 29.9385L10.8589 21.9521H17.974L16.7117 29.4764C16.6552 29.8136 16.7246 30.1614 16.9046 30.4431C17.0846 30.7249 17.3604 30.9177 17.6715 30.979C17.7418 30.9931 17.8131 31.0001 17.8846 31C18.1636 30.9996 18.4336 30.8931 18.6476 30.6992C18.8617 30.5052 19.0062 30.236 19.0561 29.9385L20.3974 21.9521H27.4231C27.7393 21.9521 28.0426 21.8159 28.2662 21.5735C28.4898 21.3311 28.6154 21.0023 28.6154 20.6595C28.6154 20.3167 28.4898 19.9879 28.2662 19.7455C28.0426 19.5031 27.7393 19.367 27.4231 19.367H20.8311L22.1322 11.6116H29.8077C30.1239 11.6116 30.4272 11.4754 30.6508 11.233C30.8744 10.9906 31 10.6618 31 10.319C31 9.97623 30.8744 9.64746 30.6508 9.40506C30.4272 9.16266 30.1239 9.02648 29.8077 9.02648ZM18.4063 19.367H11.2926L12.5938 11.6116H19.7074L18.4063 19.367Z" fill="#FFF5E1"/>
</svg>
