<svg width="31" height="31" viewBox="0 0 31 31" fill="none" xmlns="http://www.w3.org/2000/svg">
<path d="M5.23125 27.125C5.01597 27.125 4.78993 27.1194 4.55313 27.1082C4.31632 27.097 4.09028 27.0811 3.875 27.0604V19.5042L10.3333 18.2125L14.0792 21.9583C15.7153 20.9681 17.2171 19.7948 18.5845 18.4385C19.9519 17.0823 21.0873 15.6292 21.9906 14.0792L18.3094 10.3656L19.5042 3.875H27.0604C27.1035 4.09028 27.125 4.31632 27.125 4.55313V5.23125C27.125 8.00833 26.5063 10.7157 25.2689 13.3533C24.0315 15.9908 22.3953 18.3318 20.3605 20.376C18.3257 22.4212 15.99 24.0573 13.3533 25.2844C10.7165 26.5115 8.00919 27.125 5.23125 27.125Z" fill="#FFF5E1"/>
</svg>
