<svg width="259" height="258" viewBox="0 0 259 258" fill="none" xmlns="http://www.w3.org/2000/svg">
<rect x="0.563477" width="258.096" height="257.133" rx="128.566" fill="#FF6602"/>
<path d="M112.021 131.727L118.708 111.664H158.833L165.521 131.727M158.833 154.019C157.06 154.019 155.359 153.314 154.105 152.06C152.851 150.806 152.146 149.105 152.146 147.331C152.146 145.558 152.851 143.857 154.105 142.602C155.359 141.348 157.06 140.644 158.833 140.644C160.607 140.644 162.308 141.348 163.562 142.602C164.816 143.857 165.521 145.558 165.521 147.331C165.521 149.105 164.816 150.806 163.562 152.06C162.308 153.314 160.607 154.019 158.833 154.019ZM118.708 154.019C116.935 154.019 115.234 153.314 113.98 152.06C112.726 150.806 112.021 149.105 112.021 147.331C112.021 145.558 112.726 143.857 113.98 142.602C115.234 141.348 116.935 140.644 118.708 140.644C120.482 140.644 122.183 141.348 123.437 142.602C124.691 143.857 125.396 145.558 125.396 147.331C125.396 149.105 124.691 150.806 123.437 152.06C122.183 153.314 120.482 154.019 118.708 154.019ZM165.164 109.435C164.228 106.76 161.687 104.977 158.833 104.977H118.708C115.855 104.977 113.314 106.76 112.378 109.435L103.104 136.185V171.852C103.104 173.034 103.574 174.168 104.41 175.005C105.246 175.841 106.38 176.31 107.563 176.31H112.021C113.203 176.31 114.337 175.841 115.173 175.005C116.01 174.168 116.479 173.034 116.479 171.852V167.394H161.063V171.852C161.063 173.034 161.532 174.168 162.368 175.005C163.205 175.841 164.339 176.31 165.521 176.31H169.979C171.162 176.31 172.296 175.841 173.132 175.005C173.968 174.168 174.438 173.034 174.438 171.852V136.185L165.164 109.435ZM142.873 96.0603C141.936 93.3853 139.395 91.602 136.542 91.602H96.4168C93.5635 91.602 91.0222 93.3853 90.086 96.0603L80.8126 122.81V158.477C80.8126 159.659 81.2823 160.793 82.1184 161.63C82.9545 162.466 84.0885 162.935 85.271 162.935H89.7293C90.9117 162.935 92.0457 162.466 92.8818 161.63C93.7179 160.793 94.1876 159.659 94.1876 158.477V140.242C93.3647 139.947 92.608 139.493 91.9608 138.905C91.3137 138.317 90.7888 137.607 90.4161 136.817C90.0434 136.026 89.8303 135.169 89.789 134.296C89.7476 133.422 89.8788 132.55 90.1751 131.727C91.156 129.052 93.608 127.269 96.4168 127.269H96.7289L99.8497 118.352H89.7293L96.4168 98.2895H143.631L142.873 96.0603Z" fill="#FFF5E1"/>
</svg>
