<svg width="243" height="238" viewBox="0 0 243 238" fill="none" xmlns="http://www.w3.org/2000/svg">
<rect width="243" height="238" rx="36" fill="#242424"/>
<path d="M103.667 119.042L110.354 98.9792H150.479L157.167 119.042M150.479 141.333C148.706 141.333 147.005 140.629 145.751 139.375C144.496 138.121 143.792 136.42 143.792 134.646C143.792 132.872 144.496 131.171 145.751 129.917C147.005 128.663 148.706 127.958 150.479 127.958C152.253 127.958 153.954 128.663 155.208 129.917C156.462 131.171 157.167 132.872 157.167 134.646C157.167 136.42 156.462 138.121 155.208 139.375C153.954 140.629 152.253 141.333 150.479 141.333ZM110.354 141.333C108.581 141.333 106.88 140.629 105.626 139.375C104.371 138.121 103.667 136.42 103.667 134.646C103.667 132.872 104.371 131.171 105.626 129.917C106.88 128.663 108.581 127.958 110.354 127.958C112.128 127.958 113.829 128.663 115.083 129.917C116.337 131.171 117.042 132.872 117.042 134.646C117.042 136.42 116.337 138.121 115.083 139.375C113.829 140.629 112.128 141.333 110.354 141.333ZM156.81 96.7501C155.874 94.0751 153.333 92.2917 150.479 92.2917H110.354C107.501 92.2917 104.96 94.0751 104.023 96.7501L94.7502 123.5V159.167C94.7502 160.349 95.2199 161.483 96.056 162.319C96.8921 163.155 98.0261 163.625 99.2085 163.625H103.667C104.849 163.625 105.983 163.155 106.819 162.319C107.655 161.483 108.125 160.349 108.125 159.167V154.708H152.708V159.167C152.708 160.349 153.178 161.483 154.014 162.319C154.85 163.155 155.984 163.625 157.167 163.625H161.625C162.808 163.625 163.942 163.155 164.778 162.319C165.614 161.483 166.083 160.349 166.083 159.167V123.5L156.81 96.7501ZM134.518 83.3751C133.582 80.7001 131.041 78.9167 128.188 78.9167H88.0627C85.2093 78.9167 82.6681 80.7001 81.7318 83.3751L72.4585 110.125V145.792C72.4585 146.974 72.9282 148.108 73.7643 148.944C74.6004 149.78 75.7344 150.25 76.9168 150.25H81.3752C82.5576 150.25 83.6916 149.78 84.5277 148.944C85.3638 148.108 85.8335 146.974 85.8335 145.792V127.557C85.0105 127.262 84.2539 126.807 83.6067 126.22C82.9596 125.632 82.4346 124.922 82.062 124.131C81.6893 123.34 81.4762 122.484 81.4349 121.61C81.3935 120.737 81.5247 119.864 81.821 119.042C82.8018 116.367 85.2539 114.583 88.0627 114.583H88.3747L91.4956 105.667H81.3752L88.0627 85.6042H135.276L134.518 83.3751Z" fill="#FFF5E1"/>
</svg>
