<svg width="1572" height="988" viewBox="0 0 1572 988" fill="none" xmlns="http://www.w3.org/2000/svg">
<path d="M404.334 24.9031C398.842 9.94347 384.598 0 368.662 0H38C17.0132 0 0 17.0132 0 38L0 949.5C0 970.487 17.0132 987.5 38 987.5H1534C1554.99 987.5 1572 970.487 1572 949.5V126C1572 105.013 1554.99 88 1534 88H454.029C438.092 88 423.849 78.0565 418.357 63.0969L404.334 24.9031Z" fill="#232323"/>
<path d="M683.294 218.234C681.717 218.234 680.366 217.906 679.241 217.25C678.132 216.579 677.273 215.641 676.664 214.439C676.054 213.22 675.75 211.791 675.75 210.151C675.75 208.511 676.054 207.089 676.664 205.886C677.273 204.668 678.132 203.731 679.241 203.075C680.366 202.403 681.717 202.067 683.294 202.067C684.856 202.067 686.2 202.403 687.324 203.075C688.449 203.731 689.308 204.668 689.902 205.886C690.511 207.089 690.816 208.511 690.816 210.151C690.816 211.791 690.511 213.22 689.902 214.439C689.308 215.641 688.449 216.579 687.324 217.25C686.2 217.906 684.856 218.234 683.294 218.234ZM683.294 214.837C684.185 214.837 684.903 214.704 685.45 214.439C686.012 214.157 686.419 213.681 686.668 213.009C686.934 212.322 687.067 211.369 687.067 210.151C687.067 208.917 686.934 207.964 686.668 207.292C686.419 206.621 686.012 206.152 685.45 205.886C684.903 205.605 684.185 205.465 683.294 205.465C682.388 205.465 681.654 205.605 681.092 205.886C680.545 206.152 680.139 206.621 679.874 207.292C679.624 207.964 679.499 208.917 679.499 210.151C679.499 211.369 679.624 212.322 679.874 213.009C680.139 213.681 680.545 214.157 681.092 214.439C681.654 214.704 682.388 214.837 683.294 214.837ZM704.48 218.234C702.949 218.234 701.669 217.977 700.638 217.461C699.622 216.946 698.857 216.219 698.341 215.282C697.842 214.329 697.592 213.197 697.592 211.885V202.302H701.083V211.838C701.083 212.588 701.184 213.181 701.387 213.618C701.606 214.056 701.958 214.368 702.442 214.556C702.926 214.743 703.606 214.837 704.48 214.837C705.339 214.837 706.011 214.743 706.495 214.556C706.995 214.368 707.347 214.056 707.55 213.618C707.753 213.181 707.854 212.588 707.854 211.838V202.302H711.369V211.885C711.369 213.197 711.111 214.329 710.596 215.282C710.08 216.219 709.307 216.946 708.276 217.461C707.261 217.977 705.995 218.234 704.48 218.234ZM722.211 218H718.696V202.302H725.913C727.163 202.302 728.217 202.489 729.076 202.864C729.951 203.239 730.615 203.785 731.068 204.504C731.521 205.207 731.747 206.066 731.747 207.081C731.747 207.925 731.607 208.659 731.325 209.284C731.044 209.893 730.607 210.377 730.013 210.737C729.435 211.08 728.693 211.299 727.787 211.393V211.627C728.459 211.83 728.99 212.135 729.381 212.541C729.771 212.947 730.115 213.454 730.412 214.064L732.403 218H728.303L726.452 214.368C726.218 213.915 725.983 213.548 725.749 213.267C725.53 212.97 725.257 212.759 724.929 212.634C724.617 212.494 724.179 212.424 723.617 212.424H722.211V218ZM722.211 205.465V209.518H726.077C726.905 209.518 727.475 209.37 727.787 209.073C728.1 208.776 728.256 208.245 728.256 207.48C728.256 206.73 728.1 206.207 727.787 205.91C727.475 205.613 726.905 205.465 726.077 205.465H722.211ZM755.203 218.234C753.672 218.234 752.407 218.031 751.407 217.625C750.408 217.219 749.666 216.618 749.181 215.821C748.697 215.024 748.455 214.048 748.455 212.892V212.588H751.899V212.822C751.899 213.4 751.993 213.853 752.181 214.181C752.368 214.493 752.704 214.72 753.188 214.86C753.688 214.985 754.414 215.048 755.367 215.048C756.367 215.048 757.031 214.938 757.359 214.72C757.687 214.501 757.851 214.126 757.851 213.595C757.851 213.236 757.796 212.947 757.687 212.728C757.593 212.509 757.374 212.33 757.031 212.189C756.687 212.033 756.148 211.9 755.414 211.791L752.649 211.299C751.649 211.127 750.829 210.846 750.189 210.455C749.564 210.049 749.103 209.549 748.807 208.956C748.525 208.347 748.385 207.636 748.385 206.824C748.385 206.011 748.588 205.246 748.994 204.527C749.416 203.809 750.087 203.223 751.009 202.77C751.946 202.302 753.157 202.067 754.641 202.067C756.14 202.067 757.351 202.302 758.272 202.77C759.21 203.239 759.897 203.887 760.334 204.715C760.772 205.527 760.99 206.457 760.99 207.503V207.691H757.523V207.433C757.523 206.886 757.437 206.457 757.265 206.144C757.093 205.832 756.789 205.605 756.351 205.465C755.914 205.324 755.305 205.254 754.524 205.254C753.524 205.254 752.829 205.371 752.438 205.605C752.063 205.824 751.876 206.183 751.876 206.683C751.876 207.011 751.938 207.277 752.063 207.48C752.188 207.667 752.407 207.816 752.719 207.925C753.047 208.034 753.516 208.151 754.125 208.276L756.914 208.815C758.007 209.018 758.874 209.346 759.514 209.799C760.17 210.237 760.639 210.768 760.92 211.393C761.201 212.017 761.342 212.712 761.342 213.478C761.342 214.306 761.139 215.087 760.733 215.821C760.327 216.539 759.678 217.125 758.788 217.578C757.898 218.016 756.703 218.234 755.203 218.234ZM771.425 218H767.911V202.302H771.425V218ZM779.884 218H768.895V214.837H779.884V218ZM779.532 211.674H768.895V208.534H779.532V211.674ZM779.884 205.465H768.895V202.302H779.884V205.465ZM790.4 218H786.886V202.302H794.102C795.352 202.302 796.406 202.489 797.266 202.864C798.14 203.239 798.804 203.785 799.257 204.504C799.71 205.207 799.937 206.066 799.937 207.081C799.937 207.925 799.796 208.659 799.515 209.284C799.234 209.893 798.796 210.377 798.203 210.737C797.625 211.08 796.883 211.299 795.977 211.393V211.627C796.649 211.83 797.18 212.135 797.57 212.541C797.961 212.947 798.304 213.454 798.601 214.064L800.593 218H796.492L794.641 214.368C794.407 213.915 794.173 213.548 793.938 213.267C793.72 212.97 793.446 212.759 793.118 212.634C792.806 212.494 792.369 212.424 791.806 212.424H790.4V218ZM790.4 205.465V209.518H794.266C795.094 209.518 795.664 209.37 795.977 209.073C796.289 208.776 796.445 208.245 796.445 207.48C796.445 206.73 796.289 206.207 795.977 205.91C795.664 205.613 795.094 205.465 794.266 205.465H790.4ZM815.783 218H811.097L805.404 202.302H809.363L813.37 214.064H813.604L817.541 202.302H821.477L815.783 218ZM831.005 218H827.49V202.302H831.005V218ZM845.444 218.234C843.866 218.234 842.515 217.906 841.39 217.25C840.281 216.579 839.422 215.641 838.813 214.439C838.219 213.22 837.922 211.791 837.922 210.151C837.922 208.511 838.219 207.089 838.813 205.886C839.422 204.668 840.281 203.731 841.39 203.075C842.515 202.403 843.866 202.067 845.444 202.067C847.006 202.067 848.31 202.325 849.357 202.84C850.419 203.356 851.223 204.09 851.77 205.043C852.317 205.98 852.59 207.097 852.59 208.393V208.604H848.841V208.487C848.841 207.363 848.583 206.581 848.068 206.144C847.552 205.691 846.67 205.465 845.42 205.465C844.53 205.465 843.811 205.597 843.265 205.863C842.718 206.129 842.312 206.597 842.046 207.269C841.796 207.94 841.671 208.901 841.671 210.151C841.671 211.385 841.796 212.345 842.046 213.033C842.312 213.704 842.718 214.173 843.265 214.439C843.811 214.704 844.53 214.837 845.42 214.837C846.67 214.837 847.552 214.618 848.068 214.181C848.583 213.728 848.841 212.939 848.841 211.814V211.697H852.59V211.908C852.59 213.205 852.317 214.329 851.77 215.282C851.223 216.219 850.419 216.946 849.357 217.461C848.31 217.977 847.006 218.234 845.444 218.234ZM862.96 218H859.446V202.302H862.96V218ZM871.419 218H860.43V214.837H871.419V218ZM871.067 211.674H860.43V208.534H871.067V211.674ZM871.419 205.465H860.43V202.302H871.419V205.465ZM885.009 218.234C883.478 218.234 882.212 218.031 881.213 217.625C880.213 217.219 879.471 216.618 878.987 215.821C878.503 215.024 878.261 214.048 878.261 212.892V212.588H881.705V212.822C881.705 213.4 881.799 213.853 881.986 214.181C882.173 214.493 882.509 214.72 882.993 214.86C883.493 214.985 884.22 215.048 885.173 215.048C886.172 215.048 886.836 214.938 887.164 214.72C887.492 214.501 887.656 214.126 887.656 213.595C887.656 213.236 887.602 212.947 887.492 212.728C887.398 212.509 887.18 212.33 886.836 212.189C886.492 212.033 885.954 211.9 885.219 211.791L882.455 211.299C881.455 211.127 880.635 210.846 879.994 210.455C879.37 210.049 878.909 209.549 878.612 208.956C878.331 208.347 878.19 207.636 878.19 206.824C878.19 206.011 878.393 205.246 878.799 204.527C879.221 203.809 879.893 203.223 880.814 202.77C881.752 202.302 882.962 202.067 884.446 202.067C885.946 202.067 887.156 202.302 888.078 202.77C889.015 203.239 889.702 203.887 890.14 204.715C890.577 205.527 890.796 206.457 890.796 207.503V207.691H887.328V207.433C887.328 206.886 887.242 206.457 887.07 206.144C886.899 205.832 886.594 205.605 886.157 205.465C885.719 205.324 885.11 205.254 884.329 205.254C883.329 205.254 882.634 205.371 882.244 205.605C881.869 205.824 881.681 206.183 881.681 206.683C881.681 207.011 881.744 207.277 881.869 207.48C881.994 207.667 882.212 207.816 882.525 207.925C882.853 208.034 883.322 208.151 883.931 208.276L886.719 208.815C887.812 209.018 888.679 209.346 889.32 209.799C889.976 210.237 890.444 210.768 890.726 211.393C891.007 212.017 891.147 212.712 891.147 213.478C891.147 214.306 890.944 215.087 890.538 215.821C890.132 216.539 889.484 217.125 888.593 217.578C887.703 218.016 886.508 218.234 885.009 218.234Z" fill="#FFF5E1"/>
<path d="M111.849 61.2343C110.318 61.2343 109.053 61.0312 108.053 60.6251C107.054 60.219 106.312 59.6176 105.828 58.821C105.343 58.0243 105.101 57.048 105.101 55.8921V55.5875H108.546V55.8218C108.546 56.3998 108.639 56.8528 108.827 57.1808C109.014 57.4932 109.35 57.7197 109.834 57.8603C110.334 57.9853 111.06 58.0477 112.013 58.0477C113.013 58.0477 113.677 57.9384 114.005 57.7197C114.333 57.501 114.497 57.1261 114.497 56.595C114.497 56.2358 114.442 55.9468 114.333 55.7281C114.239 55.5094 114.02 55.3298 113.677 55.1892C113.333 55.033 112.794 54.9002 112.06 54.7909L109.295 54.2989C108.296 54.127 107.476 53.8459 106.835 53.4554C106.21 53.0492 105.749 52.5494 105.453 51.9558C105.172 51.3466 105.031 50.6359 105.031 49.8236C105.031 49.0113 105.234 48.246 105.64 47.5274C106.062 46.8089 106.734 46.2231 107.655 45.7701C108.592 45.3015 109.803 45.0672 111.287 45.0672C112.786 45.0672 113.997 45.3015 114.919 45.7701C115.856 46.2387 116.543 46.887 116.981 47.7149C117.418 48.5271 117.637 49.4565 117.637 50.5031V50.6905H114.169V50.4328C114.169 49.8861 114.083 49.4565 113.911 49.1441C113.739 48.8317 113.435 48.6052 112.997 48.4646C112.56 48.3241 111.951 48.2538 111.17 48.2538C110.17 48.2538 109.475 48.3709 109.084 48.6052C108.71 48.8239 108.522 49.1832 108.522 49.683C108.522 50.0111 108.585 50.2766 108.71 50.4797C108.835 50.6671 109.053 50.8155 109.366 50.9248C109.694 51.0342 110.162 51.1513 110.771 51.2763L113.56 51.8152C114.653 52.0183 115.52 52.3463 116.16 52.7993C116.817 53.2367 117.285 53.7678 117.566 54.3926C117.847 55.0174 117.988 55.7125 117.988 56.4779C117.988 57.3058 117.785 58.0868 117.379 58.821C116.973 59.5395 116.324 60.1253 115.434 60.5782C114.544 61.0156 113.349 61.2343 111.849 61.2343ZM128.071 61H124.557V45.3015H128.071V61ZM136.53 61H125.541V57.8369H136.53V61ZM136.178 54.6737H125.541V51.534H136.178V54.6737ZM136.53 48.4646H125.541V45.3015H136.53V48.4646ZM147.047 61H143.532V45.3015H150.749C151.998 45.3015 153.053 45.489 153.912 45.8638C154.786 46.2387 155.45 46.7854 155.903 47.504C156.356 48.2069 156.583 49.066 156.583 50.0813C156.583 50.9248 156.442 51.659 156.161 52.2838C155.88 52.893 155.443 53.3772 154.849 53.7365C154.271 54.0802 153.529 54.2989 152.623 54.3926V54.6269C153.295 54.8299 153.826 55.1345 154.216 55.5407C154.607 55.9468 154.95 56.4545 155.247 57.0637L157.239 61H153.139L151.287 57.3683C151.053 56.9153 150.819 56.5482 150.585 56.267C150.366 55.9702 150.093 55.7594 149.765 55.6344C149.452 55.4938 149.015 55.4235 148.452 55.4235H147.047V61ZM147.047 48.4646V52.5181H150.913C151.74 52.5181 152.311 52.3697 152.623 52.0729C152.935 51.7762 153.092 51.2451 153.092 50.4797C153.092 49.7299 152.935 49.2066 152.623 48.9098C152.311 48.613 151.74 48.4646 150.913 48.4646H147.047ZM172.43 61H167.743L162.05 45.3015H166.01L170.016 57.0637H170.251L174.187 45.3015H178.123L172.43 61ZM187.651 61H184.136V45.3015H187.651V61ZM202.09 61.2343C200.512 61.2343 199.161 60.9063 198.036 60.2502C196.927 59.5785 196.068 58.6413 195.459 57.4386C194.865 56.2202 194.569 54.7909 194.569 53.1508C194.569 51.5106 194.865 50.0892 195.459 48.8864C196.068 47.668 196.927 46.7308 198.036 46.0747C199.161 45.403 200.512 45.0672 202.09 45.0672C203.652 45.0672 204.956 45.3249 206.003 45.8404C207.065 46.3559 207.869 47.09 208.416 48.0429C208.963 48.9801 209.236 50.097 209.236 51.3935V51.6043H205.487V51.4872C205.487 50.3625 205.229 49.5815 204.714 49.1441C204.199 48.6911 203.316 48.4646 202.066 48.4646C201.176 48.4646 200.457 48.5974 199.911 48.863C199.364 49.1285 198.958 49.5971 198.692 50.2688C198.442 50.9405 198.317 51.9011 198.317 53.1508C198.317 54.3848 198.442 55.3454 198.692 56.0327C198.958 56.7044 199.364 57.173 199.911 57.4386C200.457 57.7041 201.176 57.8369 202.066 57.8369C203.316 57.8369 204.199 57.6182 204.714 57.1808C205.229 56.7278 205.487 55.939 205.487 54.8143V54.6972H209.236V54.908C209.236 56.2045 208.963 57.3292 208.416 58.2821C207.869 59.2193 207.065 59.9456 206.003 60.4611C204.956 60.9766 203.652 61.2343 202.09 61.2343ZM219.606 61H216.092V45.3015H219.606V61ZM228.065 61H217.076V57.8369H228.065V61ZM227.713 54.6737H217.076V51.534H227.713V54.6737ZM228.065 48.4646H217.076V45.3015H228.065V48.4646ZM241.655 61.2343C240.124 61.2343 238.859 61.0312 237.859 60.6251C236.859 60.219 236.117 59.6176 235.633 58.821C235.149 58.0243 234.907 57.048 234.907 55.8921V55.5875H238.351V55.8218C238.351 56.3998 238.445 56.8528 238.632 57.1808C238.82 57.4932 239.155 57.7197 239.64 57.8603C240.14 57.9853 240.866 58.0477 241.819 58.0477C242.818 58.0477 243.482 57.9384 243.81 57.7197C244.138 57.501 244.302 57.1261 244.302 56.595C244.302 56.2358 244.248 55.9468 244.138 55.7281C244.045 55.5094 243.826 55.3298 243.482 55.1892C243.139 55.033 242.6 54.9002 241.866 54.7909L239.101 54.2989C238.101 54.127 237.281 53.8459 236.641 53.4554C236.016 53.0492 235.555 52.5494 235.258 51.9558C234.977 51.3466 234.836 50.6359 234.836 49.8236C234.836 49.0113 235.039 48.246 235.446 47.5274C235.867 46.8089 236.539 46.2231 237.461 45.7701C238.398 45.3015 239.608 45.0672 241.092 45.0672C242.592 45.0672 243.803 45.3015 244.724 45.7701C245.661 46.2387 246.349 46.887 246.786 47.7149C247.223 48.5271 247.442 49.4565 247.442 50.5031V50.6905H243.974V50.4328C243.974 49.8861 243.888 49.4565 243.717 49.1441C243.545 48.8317 243.24 48.6052 242.803 48.4646C242.365 48.3241 241.756 48.2538 240.975 48.2538C239.976 48.2538 239.28 48.3709 238.89 48.6052C238.515 48.8239 238.328 49.1832 238.328 49.683C238.328 50.0111 238.39 50.2766 238.515 50.4797C238.64 50.6671 238.859 50.8155 239.171 50.9248C239.499 51.0342 239.968 51.1513 240.577 51.2763L243.365 51.8152C244.459 52.0183 245.325 52.3463 245.966 52.7993C246.622 53.2367 247.091 53.7678 247.372 54.3926C247.653 55.0174 247.794 55.7125 247.794 56.4779C247.794 57.3058 247.59 58.0868 247.184 58.821C246.778 59.5395 246.13 60.1253 245.24 60.5782C244.349 61.0156 243.154 61.2343 241.655 61.2343Z" fill="#FFF5E1"/>
</svg>
