<svg width="138" height="138" viewBox="0 0 138 138" fill="none" xmlns="http://www.w3.org/2000/svg">
<path d="M68.8208 114.701C58.1736 114.701 47.9624 110.471 40.4337 102.943C32.905 95.4139 28.6754 85.2027 28.6754 74.5555C28.6754 63.9083 32.905 53.6972 40.4337 46.1684C47.9624 38.6397 58.1736 34.4101 68.8208 34.4101C79.468 34.4101 89.6791 38.6397 97.2079 46.1684C104.737 53.6972 108.966 63.9083 108.966 74.5555C108.966 85.2027 104.737 95.4139 97.2079 102.943C89.6791 110.471 79.468 114.701 68.8208 114.701ZM68.8208 22.94C55.1315 22.94 42.0029 28.3781 32.3231 38.0578C22.6433 47.7376 17.2053 60.8662 17.2053 74.5555C17.2053 88.2448 22.6433 101.373 32.3231 111.053C42.0029 120.733 55.1315 126.171 68.8208 126.171C82.5101 126.171 95.6387 120.733 105.318 111.053C114.998 101.373 120.436 88.2448 120.436 74.5555C120.436 60.8662 114.998 47.7376 105.318 38.0578C95.6387 28.3781 82.5101 22.94 68.8208 22.94ZM71.6883 45.8802H63.0857V80.2906L90.3272 96.6355L94.6285 89.5814L71.6883 75.9893V45.8802ZM45.1923 19.4416L37.8515 10.667L11.4702 32.747L18.8684 41.5216L45.1923 19.4416ZM126.171 32.8043L99.7901 10.667L92.3919 19.4416L118.773 41.5789L126.171 32.8043Z" fill="#FF6602"/>
</svg>
