<svg width="106" height="106" viewBox="0 0 106 106" fill="none" xmlns="http://www.w3.org/2000/svg">
<path d="M70.5009 37.2511L31.67 76.1914C30.7949 77.0665 29.755 77.504 28.5504 77.504C27.3457 77.504 26.3073 77.0665 25.4352 76.1914C24.5601 75.3163 24.1226 74.2765 24.1226 73.0718C24.1226 71.8671 24.5601 70.8287 25.4352 69.9566L64.3755 31.1256H31.1231C29.8834 31.1256 28.8435 30.7056 28.0035 29.8656C27.1634 29.0255 26.7448 27.9871 26.7477 26.7503C26.7477 25.5107 27.1678 24.4708 28.0078 23.6307C28.8479 22.7907 29.8863 22.3721 31.1231 22.375H74.8762C76.1159 22.375 77.1558 22.795 77.9958 23.6351C78.8359 24.4752 79.2544 25.5136 79.2515 26.7503V70.5035C79.2515 71.7432 78.8315 72.783 77.9914 73.6231C77.1514 74.4631 76.113 74.8817 74.8762 74.8788C73.6365 74.8788 72.5967 74.4588 71.7566 73.6187C70.9166 72.7787 70.498 71.7402 70.5009 70.5035V37.2511Z" fill="#FFF5E1"/>
</svg>
