<svg width="259" height="258" viewBox="0 0 259 258" fill="none" xmlns="http://www.w3.org/2000/svg">
<rect x="0.289673" width="258.096" height="257.133" rx="128.566" fill="#14968F"/>
<path d="M172.299 130.558L142.606 100.911C141.85 100.151 140.853 99.6764 139.785 99.57L96.5413 95.5C95.8639 95.4377 95.181 95.5256 94.5415 95.7575C93.9019 95.9893 93.3214 96.3594 92.8413 96.8413C92.3594 97.3214 91.9893 97.9019 91.7575 98.5415C91.5256 99.181 91.4377 99.8639 91.5 100.541L95.57 143.785C95.6764 144.853 96.1505 145.85 96.9113 146.606L126.558 176.299C128.148 177.867 130.29 178.747 132.524 178.75C134.743 178.745 136.871 177.864 138.444 176.299L172.299 142.444C173.872 140.866 174.755 138.729 174.755 136.501C174.755 134.273 173.872 132.135 172.299 130.558ZM126.465 130.558C125.495 131.529 124.259 132.19 122.913 132.459C121.567 132.727 120.172 132.59 118.904 132.065C117.635 131.54 116.551 130.651 115.789 129.51C115.026 128.369 114.619 127.028 114.619 125.655C114.619 124.283 115.026 122.941 115.789 121.8C116.551 120.659 117.635 119.77 118.904 119.245C120.172 118.72 121.567 118.583 122.913 118.851C124.259 119.12 125.495 119.781 126.465 120.753C127.747 122.044 128.467 123.789 128.467 125.609C128.467 127.428 127.747 129.174 126.465 130.465V130.558Z" fill="#FFF5E1"/>
</svg>
