<svg width="259" height="258" viewBox="0 0 259 258" fill="none" xmlns="http://www.w3.org/2000/svg">
<rect x="0.836914" width="258.096" height="257.133" rx="128.566" fill="#14968F"/>
<g clip-path="url(#clip0_144_128)">
<path fill-rule="evenodd" clip-rule="evenodd" d="M128.401 83.3859C130.324 82.6662 132.426 82.5723 134.407 83.1178L135.245 83.3859L169.37 96.1828C171.1 96.8316 172.611 97.9588 173.725 99.433C174.839 100.907 175.511 102.668 175.664 104.509L175.698 105.314V131.458C175.698 139.358 173.565 147.111 169.524 153.899C165.484 160.687 159.685 166.258 152.741 170.024L151.445 170.702L135.094 178.877C134.194 179.327 133.21 179.586 132.205 179.638C131.2 179.69 130.196 179.534 129.254 179.18L128.552 178.877L112.201 170.702C105.135 167.169 99.1543 161.794 94.8898 155.144C90.6253 148.494 88.2353 140.816 87.9721 132.921L87.9478 131.458V105.314C87.9478 103.467 88.4724 101.658 89.4606 100.097C90.4488 98.5369 91.8599 97.2893 93.5296 96.4997L94.2755 96.1828L128.401 83.3859ZM148.559 114.752L126.143 137.167L117.524 128.548C116.61 127.634 115.369 127.121 114.076 127.121C112.783 127.121 111.543 127.636 110.629 128.55C109.715 129.465 109.201 130.706 109.202 131.999C109.202 133.292 109.716 134.532 110.631 135.446L122.351 147.166C122.849 147.664 123.44 148.059 124.091 148.329C124.741 148.598 125.439 148.737 126.143 148.737C126.848 148.737 127.545 148.598 128.196 148.329C128.847 148.059 129.438 147.664 129.936 147.166L155.452 121.645C155.917 121.195 156.289 120.657 156.544 120.063C156.8 119.468 156.934 118.828 156.94 118.181C156.946 117.533 156.822 116.892 156.577 116.292C156.332 115.693 155.97 115.149 155.512 114.691C155.055 114.234 154.51 113.872 153.911 113.626C153.312 113.381 152.67 113.258 152.023 113.264C151.375 113.269 150.736 113.404 150.141 113.659C149.546 113.915 149.008 114.286 148.559 114.752Z" fill="#FFF5E1"/>
</g>
<defs>
<clipPath id="clip0_144_128">
<rect width="117" height="117" fill="white" transform="translate(73.3228 72.6853)"/>
</clipPath>
</defs>
</svg>
