<svg width="620" height="633" viewBox="0 0 620 633" fill="none" xmlns="http://www.w3.org/2000/svg">
<rect width="262.523" height="262.523" rx="25.2205" fill="#FFF5E1"/>
<path d="M85.2025 216.157C83.5247 216.157 82.0078 215.87 80.6518 215.295C79.3187 214.72 78.2615 213.893 77.48 212.813C76.6986 211.733 76.2964 210.457 76.2734 208.986H81.4447C81.5137 209.974 81.8584 210.756 82.479 211.33C83.1225 211.905 83.9959 212.192 85.0991 212.192C86.2253 212.192 87.1102 211.928 87.7537 211.399C88.3973 210.848 88.719 210.135 88.719 209.262C88.719 208.549 88.5007 207.963 88.064 207.504C87.6273 207.044 87.0757 206.688 86.4092 206.435C85.7656 206.159 84.8693 205.86 83.7201 205.538C82.1572 205.079 80.8816 204.631 79.8933 204.194C78.928 203.734 78.0891 203.056 77.3766 202.16C76.6871 201.24 76.3423 200.022 76.3423 198.505C76.3423 197.08 76.6986 195.839 77.4111 194.782C78.1236 193.725 79.1234 192.92 80.4104 192.369C81.6975 191.794 83.1685 191.507 84.8233 191.507C87.3055 191.507 89.3166 192.116 90.8565 193.334C92.4194 194.529 93.2813 196.207 93.4422 198.368H88.133C88.087 197.54 87.7307 196.862 87.0642 196.333C86.4207 195.782 85.5588 195.506 84.4786 195.506C83.5362 195.506 82.7778 195.747 82.2032 196.23C81.6516 196.713 81.3758 197.414 81.3758 198.333C81.3758 198.977 81.5826 199.517 81.9963 199.953C82.433 200.367 82.9616 200.712 83.5822 200.988C84.2257 201.24 85.1221 201.539 86.2713 201.884C87.8342 202.344 89.1098 202.803 90.0981 203.263C91.0864 203.723 91.9368 204.412 92.6492 205.332C93.3617 206.251 93.718 207.458 93.718 208.951C93.718 210.239 93.3847 211.434 92.7182 212.537C92.0517 213.64 91.0749 214.525 89.7878 215.192C88.5007 215.835 86.9723 216.157 85.2025 216.157ZM96.6613 206.297C96.6613 204.366 97.0406 202.654 97.799 201.16C98.5805 199.666 99.6262 198.517 100.936 197.712C102.269 196.908 103.752 196.506 105.384 196.506C106.809 196.506 108.05 196.793 109.107 197.368C110.187 197.942 111.049 198.666 111.693 199.54V196.816H116.554V215.916H111.693V213.123C111.072 214.019 110.21 214.766 109.107 215.364C108.027 215.939 106.774 216.226 105.349 216.226C103.74 216.226 102.269 215.812 100.936 214.985C99.6262 214.157 98.5805 212.997 97.799 211.503C97.0406 209.986 96.6613 208.25 96.6613 206.297ZM111.693 206.366C111.693 205.194 111.463 204.194 111.003 203.366C110.543 202.516 109.923 201.873 109.141 201.436C108.36 200.976 107.521 200.746 106.625 200.746C105.728 200.746 104.901 200.965 104.143 201.401C103.384 201.838 102.763 202.482 102.281 203.332C101.821 204.159 101.591 205.148 101.591 206.297C101.591 207.446 101.821 208.457 102.281 209.331C102.763 210.181 103.384 210.836 104.143 211.296C104.924 211.755 105.751 211.985 106.625 211.985C107.521 211.985 108.36 211.767 109.141 211.33C109.923 210.871 110.543 210.227 111.003 209.4C111.463 208.549 111.693 207.538 111.693 206.366ZM130.024 200.781H126.68V215.916H121.785V200.781H119.613V196.816H121.785V195.851C121.785 193.506 122.451 191.783 123.784 190.679C125.117 189.576 127.129 189.059 129.818 189.128V193.196C128.645 193.173 127.83 193.369 127.37 193.782C126.91 194.196 126.68 194.943 126.68 196.023V196.816H130.024V200.781ZM150.907 205.952C150.907 206.642 150.861 207.262 150.769 207.814H136.807C136.922 209.193 137.404 210.273 138.255 211.054C139.105 211.836 140.151 212.227 141.392 212.227C143.185 212.227 144.46 211.457 145.219 209.917H150.425C149.873 211.755 148.816 213.272 147.253 214.468C145.69 215.64 143.771 216.226 141.495 216.226C139.657 216.226 138.002 215.824 136.531 215.019C135.083 214.192 133.945 213.031 133.118 211.537C132.313 210.043 131.911 208.319 131.911 206.366C131.911 204.389 132.313 202.654 133.118 201.16C133.922 199.666 135.048 198.517 136.496 197.712C137.944 196.908 139.611 196.506 141.495 196.506C143.311 196.506 144.931 196.897 146.356 197.678C147.804 198.459 148.919 199.574 149.701 201.022C150.505 202.447 150.907 204.09 150.907 205.952ZM145.908 204.573C145.885 203.332 145.437 202.344 144.564 201.608C143.69 200.85 142.622 200.471 141.357 200.471C140.162 200.471 139.151 200.838 138.324 201.574C137.519 202.286 137.025 203.286 136.841 204.573H145.908ZM160.05 200.781V210.02C160.05 210.664 160.199 211.135 160.498 211.434C160.82 211.71 161.348 211.847 162.084 211.847H164.325V215.916H161.291C157.223 215.916 155.189 213.939 155.189 209.986V200.781H152.913V196.816H155.189V192.093H160.05V196.816H164.325V200.781H160.05ZM186.068 196.816L174.243 224.948H169.106L173.243 215.433L165.59 196.816H171.002L175.932 210.158L180.931 196.816H186.068Z" fill="black"/>
<rect x="340.477" width="262.523" height="262.523" rx="25.2205" fill="#FFF5E1"/>
<rect y="351.941" width="262.523" height="262.523" rx="25.2205" fill="#FFF5E1"/>
<rect x="340.477" y="351.941" width="262.523" height="262.523" rx="25.2205" fill="#FFF5E1"/>
<path d="M119.081 139.323C116.848 139.323 114.936 138.527 113.344 136.935C111.753 135.344 110.958 133.433 110.961 131.202V119.022H98.7804C96.5473 119.022 94.635 118.226 93.0435 116.635C91.4519 115.043 90.6575 113.132 90.6602 110.902V86.541C90.6602 84.3079 91.4559 82.3956 93.0475 80.804C94.6391 79.2125 96.55 78.418 98.7804 78.4207H110.961V66.2404C110.961 64.0073 111.757 62.095 113.348 60.5034C114.94 58.9118 116.851 58.1174 119.081 58.1201H143.442C145.675 58.1201 147.587 58.9159 149.179 60.5075C150.77 62.099 151.565 64.01 151.562 66.2404V78.4207H163.742C165.975 78.4207 167.888 79.2165 169.479 80.8081C171.071 82.3997 171.865 84.3106 171.863 86.541V110.902C171.863 113.135 171.067 115.047 169.475 116.639C167.884 118.23 165.973 119.025 163.742 119.022H151.562V131.202C151.562 133.435 150.766 135.348 149.175 136.939C147.583 138.531 145.672 139.325 143.442 139.323H119.081ZM98.7804 94.6612H119.081C119.758 94.6612 120.401 94.8304 121.01 95.1688C121.619 95.5071 122.092 95.9469 122.431 96.4883L125.983 101.766L131.464 85.323C131.735 84.5109 132.225 83.8342 132.934 83.2929C133.643 82.7515 134.439 82.4809 135.322 82.4809C135.998 82.4809 136.641 82.65 137.25 82.9884C137.859 83.3267 138.333 83.7666 138.671 84.3079L145.573 94.6612H163.742V86.541H147.502C146.352 86.541 145.387 86.1512 144.607 85.3717C143.827 84.5921 143.439 83.6285 143.442 82.4809V66.2404H119.081V82.4809C119.081 83.6312 118.691 84.5962 117.912 85.3757C117.132 86.1553 116.169 86.5437 115.021 86.541H98.7804V94.6612ZM98.7804 102.781V110.902H115.021C116.171 110.902 117.136 111.292 117.916 112.071C118.695 112.851 119.084 113.814 119.081 114.962V131.202H143.442V114.962C143.442 113.811 143.832 112.847 144.611 112.067C145.391 111.287 146.354 110.899 147.502 110.902H163.742V102.781H143.442C142.765 102.781 142.122 102.612 141.513 102.274C140.904 101.936 140.397 101.496 139.991 100.954L136.54 95.6763L131.058 112.12C130.788 112.932 130.28 113.608 129.536 114.15C128.791 114.691 127.979 114.962 127.1 114.962C126.423 114.962 125.78 114.793 125.171 114.454C124.562 114.116 124.089 113.676 123.75 113.135L116.848 102.781H98.7804ZM90.6602 102.781H98.7804V110.902H115.021C116.171 110.902 117.136 111.292 117.916 112.071C118.695 112.851 119.084 113.814 119.081 114.962V131.202H143.442V114.962C143.442 113.811 143.832 112.847 144.611 112.067C145.391 111.287 146.354 110.899 147.502 110.902H163.742V102.781H171.863V94.6612H163.742V86.541H147.502C146.352 86.541 145.387 86.1512 144.607 85.3717C143.827 84.5921 143.439 83.6285 143.442 82.4809V66.2404H119.081V82.4809C119.081 83.6312 118.691 84.5962 117.912 85.3757C117.132 86.1553 116.169 86.5437 115.021 86.541H98.7804V94.6612H90.6602V102.781Z" fill="black"/>
<rect x="15.5732" y="16.5732" width="261.376" height="261.376" rx="24.6473" stroke="#FFF5E1" stroke-width="1.14639"/>
<rect x="15.5732" y="370.573" width="261.376" height="261.376" rx="24.6473" stroke="#FFF5E1" stroke-width="1.14639"/>
<rect x="357.573" y="16.5732" width="261.376" height="261.376" rx="24.6473" stroke="#FFF5E1" stroke-width="1.14639"/>
<rect x="357.573" y="370.573" width="261.376" height="261.376" rx="24.6473" stroke="#FFF5E1" stroke-width="1.14639"/>
<mask id="mask0_23_1006" style="mask-type:luminance" maskUnits="userSpaceOnUse" x="427" y="60" width="87" height="86">
<path fill-rule="evenodd" clip-rule="evenodd" d="M470.591 143.906C493.014 143.906 511.191 125.729 511.191 103.306C511.191 80.8822 493.014 62.7056 470.591 62.7056C448.167 62.7056 429.991 80.8822 429.991 103.306C429.991 125.729 448.167 143.906 470.591 143.906Z" fill="white" stroke="white" stroke-width="4" stroke-linecap="round" stroke-linejoin="round"/>
<path d="M470.591 80.9756L456.381 123.606L470.591 113.456L484.801 123.606L470.591 80.9756Z" fill="black" stroke="black" stroke-width="4" stroke-linecap="round" stroke-linejoin="round"/>
</mask>
<g mask="url(#mask0_23_1006)">
<path d="M421.871 54.5854H519.311V152.025H421.871V54.5854Z" fill="black"/>
</g>
<g clip-path="url(#clip0_23_1006)">
<path d="M87.6986 465.326L84.4027 458.734H107.474L104.837 452.142H83.3041L80.0083 445.551H114.285L111.649 438.959H79.393L75.6138 432.367H92.0931C92.0931 430.036 93.0191 427.801 94.6673 426.152C96.3156 424.504 98.5511 423.578 100.882 423.578H153.616V441.156H166.799L179.983 458.734V480.706H171.194C171.194 484.203 169.805 487.556 167.333 490.029C164.86 492.501 161.507 493.89 158.01 493.89C154.514 493.89 151.161 492.501 148.688 490.029C146.216 487.556 144.827 484.203 144.827 480.706H127.249C127.249 484.203 125.86 487.556 123.388 490.029C120.915 492.501 117.562 493.89 114.066 493.89C110.569 493.89 107.216 492.501 104.743 490.029C102.271 487.556 100.882 484.203 100.882 480.706H92.0931V465.326H87.6986ZM158.01 487.298C159.759 487.298 161.435 486.604 162.671 485.368C163.908 484.131 164.602 482.455 164.602 480.706C164.602 478.958 163.908 477.282 162.671 476.045C161.435 474.809 159.759 474.115 158.01 474.115C156.262 474.115 154.586 474.809 153.349 476.045C152.113 477.282 151.419 478.958 151.419 480.706C151.419 482.455 152.113 484.131 153.349 485.368C154.586 486.604 156.262 487.298 158.01 487.298ZM164.602 447.748H153.616V458.734H173.215L164.602 447.748ZM114.066 487.298C115.814 487.298 117.49 486.604 118.727 485.368C119.963 484.131 120.657 482.455 120.657 480.706C120.657 478.958 119.963 477.282 118.727 476.045C117.49 474.809 115.814 474.115 114.066 474.115C112.317 474.115 110.641 474.809 109.404 476.045C108.168 477.282 107.474 478.958 107.474 480.706C107.474 482.455 108.168 484.131 109.404 485.368C110.641 486.604 112.317 487.298 114.066 487.298Z" fill="black"/>
</g>
<path d="M495.113 443.987C495.906 444.78 496.831 445.194 497.888 445.228C498.945 445.262 499.87 444.882 500.663 444.086L506.214 438.536C507.007 437.743 507.403 436.802 507.403 435.713C507.403 434.624 507.007 433.682 506.214 432.886C505.487 432.159 504.562 431.796 503.438 431.796C502.315 431.796 501.39 432.159 500.663 432.886L495.113 438.437C494.386 439.164 494.023 440.073 494.023 441.164C494.023 442.256 494.386 443.197 495.113 443.987ZM441.789 497.806C439.609 497.806 437.741 497.029 436.187 495.475C434.633 493.921 433.857 492.055 433.86 489.877V434.373C433.86 432.192 434.637 430.325 436.191 428.771C437.745 427.217 439.611 426.441 441.789 426.444H473.506V458.161C473.506 460.341 474.283 462.208 475.837 463.763C477.391 465.317 479.257 466.092 481.435 466.09H505.223V489.877C505.223 492.058 504.445 493.925 502.891 495.479C501.337 497.033 499.471 497.809 497.293 497.806H441.789ZM501.258 458.161C499.276 458.161 497.326 457.863 495.41 457.269C493.494 456.674 491.71 455.815 490.058 454.692L488.571 456.079C487.778 456.806 486.836 457.169 485.744 457.169C484.653 457.169 483.745 456.806 483.021 456.079C482.294 455.352 481.931 454.427 481.931 453.304C481.931 452.181 482.294 451.256 483.021 450.529L484.607 448.943C483.549 447.357 482.756 445.672 482.228 443.888C481.699 442.104 481.435 440.254 481.435 438.338C481.435 432.853 483.368 428.179 487.235 424.315C491.102 420.451 495.776 418.517 501.258 418.515H521.081V438.338C521.081 443.822 519.147 448.498 515.281 452.364C511.414 456.231 506.74 458.163 501.258 458.161ZM449.718 481.948H457.647V454.196H449.718V481.948ZM465.577 481.948H473.506V442.302H465.577V481.948ZM481.435 481.948H489.364V466.09H481.435V481.948Z" fill="black"/>
<path d="M375.134 199.176C374.582 198.165 373.824 197.395 372.859 196.866C371.893 196.337 370.767 196.073 369.48 196.073C368.055 196.073 366.791 196.395 365.688 197.038C364.584 197.682 363.723 198.601 363.102 199.797C362.481 200.992 362.171 202.371 362.171 203.934C362.171 205.542 362.481 206.944 363.102 208.14C363.745 209.335 364.63 210.254 365.757 210.898C366.883 211.541 368.193 211.863 369.687 211.863C371.525 211.863 373.031 211.38 374.203 210.415C375.375 209.427 376.145 208.059 376.513 206.312H368.239V202.624H381.271V206.83C380.949 208.507 380.259 210.059 379.202 211.484C378.145 212.909 376.777 214.058 375.099 214.931C373.445 215.782 371.583 216.207 369.514 216.207C367.193 216.207 365.09 215.69 363.205 214.655C361.344 213.598 359.873 212.139 358.793 210.277C357.735 208.415 357.207 206.301 357.207 203.934C357.207 201.566 357.735 199.452 358.793 197.59C359.873 195.705 361.344 194.246 363.205 193.212C365.09 192.154 367.182 191.626 369.48 191.626C372.192 191.626 374.548 192.292 376.547 193.625C378.547 194.935 379.926 196.786 380.684 199.176H375.134ZM402.389 199.383C402.389 200.67 402.079 201.877 401.459 203.003C400.861 204.129 399.907 205.037 398.597 205.726C397.31 206.416 395.678 206.761 393.702 206.761H389.668V216H384.841V191.936H393.702C395.563 191.936 397.149 192.258 398.459 192.901C399.769 193.545 400.746 194.43 401.39 195.556C402.056 196.682 402.389 197.958 402.389 199.383ZM393.495 202.865C394.828 202.865 395.816 202.566 396.46 201.968C397.103 201.348 397.425 200.486 397.425 199.383C397.425 197.038 396.115 195.866 393.495 195.866H389.668V202.865H393.495ZM414.125 216.241C412.447 216.241 410.93 215.954 409.574 215.379C408.241 214.805 407.184 213.977 406.402 212.897C405.621 211.817 405.219 210.541 405.196 209.07H410.367C410.436 210.059 410.781 210.84 411.401 211.415C412.045 211.989 412.918 212.277 414.021 212.277C415.148 212.277 416.033 212.012 416.676 211.484C417.32 210.932 417.641 210.22 417.641 209.346C417.641 208.634 417.423 208.048 416.986 207.588C416.55 207.128 415.998 206.772 415.332 206.519C414.688 206.243 413.792 205.945 412.642 205.623C411.08 205.163 409.804 204.715 408.816 204.278C407.85 203.819 407.011 203.141 406.299 202.244C405.609 201.325 405.265 200.107 405.265 198.59C405.265 197.165 405.621 195.924 406.333 194.867C407.046 193.809 408.046 193.005 409.333 192.453C410.62 191.879 412.091 191.591 413.746 191.591C416.228 191.591 418.239 192.2 419.779 193.419C421.342 194.614 422.204 196.292 422.365 198.452H417.055C417.009 197.625 416.653 196.947 415.987 196.418C415.343 195.866 414.481 195.591 413.401 195.591C412.459 195.591 411.7 195.832 411.126 196.314C410.574 196.797 410.298 197.498 410.298 198.417C410.298 199.061 410.505 199.601 410.919 200.038C411.355 200.452 411.884 200.796 412.505 201.072C413.148 201.325 414.044 201.624 415.194 201.968C416.757 202.428 418.032 202.888 419.02 203.347C420.009 203.807 420.859 204.497 421.572 205.416C422.284 206.335 422.64 207.542 422.64 209.036C422.64 210.323 422.307 211.518 421.641 212.621C420.974 213.725 419.997 214.609 418.71 215.276C417.423 215.92 415.895 216.241 414.125 216.241ZM451.416 191.936V195.832H445.003V216H440.177V195.832H433.764V191.936H451.416ZM459.764 199.865C460.384 198.854 461.189 198.061 462.177 197.487C463.188 196.912 464.337 196.625 465.625 196.625V201.693H464.349C462.832 201.693 461.683 202.049 460.901 202.761C460.143 203.474 459.764 204.715 459.764 206.485V216H454.937V196.901H459.764V199.865ZM467.634 206.381C467.634 204.451 468.014 202.738 468.772 201.244C469.553 199.751 470.599 198.601 471.909 197.797C473.242 196.993 474.725 196.59 476.357 196.59C477.782 196.59 479.023 196.878 480.08 197.452C481.16 198.027 482.022 198.751 482.666 199.624V196.901H487.527V216H482.666V213.207C482.045 214.104 481.183 214.851 480.08 215.448C479 216.023 477.747 216.31 476.322 216.31C474.713 216.31 473.242 215.897 471.909 215.069C470.599 214.242 469.553 213.081 468.772 211.587C468.014 210.07 467.634 208.335 467.634 206.381ZM482.666 206.45C482.666 205.278 482.436 204.278 481.976 203.451C481.516 202.601 480.896 201.957 480.114 201.52C479.333 201.061 478.494 200.831 477.598 200.831C476.701 200.831 475.874 201.049 475.116 201.486C474.357 201.923 473.737 202.566 473.254 203.416C472.794 204.244 472.564 205.232 472.564 206.381C472.564 207.531 472.794 208.542 473.254 209.415C473.737 210.266 474.357 210.921 475.116 211.38C475.897 211.84 476.724 212.07 477.598 212.07C478.494 212.07 479.333 211.851 480.114 211.415C480.896 210.955 481.516 210.312 481.976 209.484C482.436 208.634 482.666 207.622 482.666 206.45ZM491 206.45C491 204.474 491.402 202.75 492.206 201.279C493.011 199.785 494.125 198.636 495.55 197.831C496.975 197.004 498.607 196.59 500.446 196.59C502.813 196.59 504.767 197.188 506.307 198.383C507.87 199.555 508.915 201.21 509.444 203.347H504.238C503.962 202.52 503.491 201.877 502.825 201.417C502.181 200.934 501.377 200.693 500.411 200.693C499.032 200.693 497.941 201.199 497.136 202.21C496.332 203.198 495.93 204.612 495.93 206.45C495.93 208.266 496.332 209.679 497.136 210.691C497.941 211.679 499.032 212.173 500.411 212.173C502.365 212.173 503.641 211.3 504.238 209.553H509.444C508.915 211.622 507.87 213.265 506.307 214.483C504.744 215.701 502.79 216.31 500.446 216.31C498.607 216.31 496.975 215.908 495.55 215.104C494.125 214.276 493.011 213.127 492.206 211.656C491.402 210.162 491 208.427 491 206.45ZM524.288 216L517.806 207.864V216H512.98V190.488H517.806V205.002L524.219 196.901H530.493L522.081 206.485L530.562 216H524.288ZM535.561 194.625C534.71 194.625 533.998 194.361 533.423 193.832C532.872 193.281 532.596 192.603 532.596 191.798C532.596 190.994 532.872 190.327 533.423 189.799C533.998 189.247 534.71 188.971 535.561 188.971C536.411 188.971 537.112 189.247 537.664 189.799C538.238 190.327 538.526 190.994 538.526 191.798C538.526 192.603 538.238 193.281 537.664 193.832C537.112 194.361 536.411 194.625 535.561 194.625ZM537.94 196.901V216H533.113V196.901H537.94ZM553.292 196.625C555.568 196.625 557.406 197.349 558.808 198.797C560.21 200.222 560.911 202.221 560.911 204.795V216H556.085V205.45C556.085 203.934 555.705 202.773 554.947 201.968C554.189 201.141 553.154 200.727 551.844 200.727C550.511 200.727 549.454 201.141 548.672 201.968C547.914 202.773 547.535 203.934 547.535 205.45V216H542.708V196.901H547.535V199.279C548.178 198.452 548.994 197.808 549.983 197.349C550.994 196.866 552.097 196.625 553.292 196.625ZM572.982 196.59C574.407 196.59 575.66 196.878 576.74 197.452C577.82 198.004 578.671 198.728 579.291 199.624V196.901H584.152V216.138C584.152 217.908 583.796 219.482 583.084 220.861C582.371 222.263 581.302 223.366 579.877 224.171C578.452 224.998 576.729 225.412 574.706 225.412C571.994 225.412 569.765 224.78 568.018 223.516C566.294 222.252 565.317 220.528 565.087 218.344H569.879C570.132 219.218 570.672 219.907 571.5 220.413C572.35 220.941 573.373 221.206 574.568 221.206C575.97 221.206 577.108 220.781 577.981 219.93C578.855 219.103 579.291 217.839 579.291 216.138V213.173C578.671 214.069 577.809 214.816 576.706 215.414C575.625 216.011 574.384 216.31 572.982 216.31C571.373 216.31 569.902 215.897 568.569 215.069C567.236 214.242 566.179 213.081 565.398 211.587C564.639 210.07 564.26 208.335 564.26 206.381C564.26 204.451 564.639 202.738 565.398 201.244C566.179 199.751 567.225 198.601 568.535 197.797C569.868 196.993 571.35 196.59 572.982 196.59ZM579.291 206.45C579.291 205.278 579.061 204.278 578.602 203.451C578.142 202.601 577.522 201.957 576.74 201.52C575.959 201.061 575.12 200.831 574.223 200.831C573.327 200.831 572.5 201.049 571.741 201.486C570.983 201.923 570.362 202.566 569.879 203.416C569.42 204.244 569.19 205.232 569.19 206.381C569.19 207.531 569.42 208.542 569.879 209.415C570.362 210.266 570.983 210.921 571.741 211.38C572.523 211.84 573.35 212.07 574.223 212.07C575.12 212.07 575.959 211.851 576.74 211.415C577.522 210.955 578.142 210.312 578.602 209.484C579.061 208.634 579.291 207.622 579.291 206.45Z" fill="black"/>
<path d="M103.217 554.177V558.073H93.1844V564.244H100.872V568.071H93.1844V578.241H88.3578V554.177H103.217ZM105.398 568.623C105.398 566.692 105.777 564.98 106.536 563.486C107.317 561.992 108.363 560.843 109.673 560.038C111.006 559.234 112.489 558.832 114.12 558.832C115.545 558.832 116.787 559.119 117.844 559.693C118.924 560.268 119.786 560.992 120.429 561.865V559.142H125.29V578.241H120.429V575.449C119.809 576.345 118.947 577.092 117.844 577.69C116.764 578.264 115.511 578.551 114.086 578.551C112.477 578.551 111.006 578.138 109.673 577.31C108.363 576.483 107.317 575.322 106.536 573.828C105.777 572.311 105.398 570.576 105.398 568.623ZM120.429 568.691C120.429 567.519 120.2 566.52 119.74 565.692C119.28 564.842 118.66 564.198 117.878 563.762C117.097 563.302 116.258 563.072 115.362 563.072C114.465 563.072 113.638 563.29 112.879 563.727C112.121 564.164 111.5 564.807 111.018 565.658C110.558 566.485 110.328 567.473 110.328 568.623C110.328 569.772 110.558 570.783 111.018 571.656C111.5 572.507 112.121 573.162 112.879 573.621C113.661 574.081 114.488 574.311 115.362 574.311C116.258 574.311 117.097 574.093 117.878 573.656C118.66 573.196 119.28 572.553 119.74 571.725C120.2 570.875 120.429 569.864 120.429 568.691ZM137.313 578.551C135.75 578.551 134.348 578.276 133.107 577.724C131.866 577.149 130.878 576.38 130.142 575.414C129.43 574.449 129.039 573.38 128.97 572.208H133.831C133.923 572.943 134.279 573.553 134.9 574.035C135.544 574.518 136.336 574.759 137.279 574.759C138.198 574.759 138.911 574.575 139.416 574.208C139.945 573.84 140.209 573.369 140.209 572.794C140.209 572.174 139.887 571.714 139.244 571.415C138.623 571.093 137.624 570.749 136.245 570.381C134.82 570.036 133.647 569.68 132.728 569.312C131.832 568.944 131.05 568.381 130.384 567.623C129.74 566.864 129.418 565.842 129.418 564.554C129.418 563.497 129.717 562.532 130.315 561.658C130.935 560.785 131.809 560.096 132.935 559.59C134.084 559.084 135.429 558.832 136.969 558.832C139.244 558.832 141.06 559.406 142.416 560.555C143.772 561.681 144.519 563.21 144.657 565.141H140.037C139.968 564.382 139.646 563.784 139.072 563.348C138.52 562.888 137.773 562.658 136.831 562.658C135.957 562.658 135.279 562.819 134.797 563.141C134.337 563.463 134.107 563.911 134.107 564.485C134.107 565.129 134.429 565.623 135.072 565.968C135.716 566.29 136.716 566.623 138.072 566.968C139.451 567.312 140.588 567.669 141.485 568.036C142.381 568.404 143.151 568.979 143.795 569.76C144.461 570.519 144.806 571.53 144.829 572.794C144.829 573.897 144.519 574.886 143.898 575.759C143.301 576.632 142.427 577.322 141.278 577.828C140.152 578.31 138.83 578.551 137.313 578.551ZM154.41 563.106V572.346C154.41 572.989 154.56 573.461 154.859 573.759C155.18 574.035 155.709 574.173 156.444 574.173H158.685V578.241H155.652C151.583 578.241 149.549 576.265 149.549 572.311V563.106H147.274V559.142H149.549V554.419H154.41V559.142H158.685V563.106H154.41Z" fill="black"/>
<path d="M378.635 558.073V564.106H386.737V567.933H378.635V574.311H387.771V578.241H373.808V554.143H387.771V558.073H378.635ZM390.916 568.691C390.916 566.715 391.318 564.991 392.123 563.52C392.927 562.026 394.042 560.877 395.467 560.073C396.892 559.245 398.524 558.832 400.362 558.832C402.73 558.832 404.683 559.429 406.223 560.624C407.786 561.796 408.832 563.451 409.361 565.589H404.155C403.879 564.761 403.408 564.118 402.741 563.658C402.098 563.175 401.293 562.934 400.328 562.934C398.949 562.934 397.857 563.44 397.053 564.451C396.248 565.439 395.846 566.853 395.846 568.691C395.846 570.507 396.248 571.921 397.053 572.932C397.857 573.92 398.949 574.414 400.328 574.414C402.282 574.414 403.557 573.541 404.155 571.794H409.361C408.832 573.863 407.786 575.506 406.223 576.724C404.66 577.942 402.707 578.551 400.362 578.551C398.524 578.551 396.892 578.149 395.467 577.345C394.042 576.517 392.927 575.368 392.123 573.897C391.318 572.403 390.916 570.668 390.916 568.691ZM421.377 578.551C419.539 578.551 417.884 578.149 416.413 577.345C414.942 576.517 413.781 575.357 412.931 573.863C412.103 572.369 411.69 570.645 411.69 568.691C411.69 566.738 412.115 565.014 412.965 563.52C413.839 562.026 415.022 560.877 416.516 560.073C418.01 559.245 419.677 558.832 421.515 558.832C423.354 558.832 425.02 559.245 426.514 560.073C428.008 560.877 429.18 562.026 430.031 563.52C430.904 565.014 431.341 566.738 431.341 568.691C431.341 570.645 430.893 572.369 429.996 573.863C429.123 575.357 427.928 576.517 426.411 577.345C424.917 578.149 423.239 578.551 421.377 578.551ZM421.377 574.345C422.251 574.345 423.067 574.139 423.825 573.725C424.607 573.288 425.227 572.645 425.687 571.794C426.147 570.944 426.376 569.91 426.376 568.691C426.376 566.876 425.894 565.485 424.928 564.52C423.986 563.532 422.825 563.038 421.446 563.038C420.067 563.038 418.907 563.532 417.964 564.52C417.045 565.485 416.585 566.876 416.585 568.691C416.585 570.507 417.033 571.909 417.93 572.898C418.849 573.863 419.998 574.345 421.377 574.345ZM449.74 554.177V558.073H439.708V564.244H447.396V568.071H439.708V578.241H434.881V554.177H449.74ZM457.989 562.107C458.61 561.095 459.414 560.302 460.403 559.728C461.414 559.153 462.563 558.866 463.85 558.866V563.934H462.575C461.058 563.934 459.908 564.29 459.127 565.003C458.369 565.715 457.989 566.956 457.989 568.726V578.241H453.163V559.142H457.989V562.107ZM469.549 556.866C468.698 556.866 467.986 556.602 467.411 556.073C466.86 555.522 466.584 554.844 466.584 554.039C466.584 553.235 466.86 552.568 467.411 552.04C467.986 551.488 468.698 551.212 469.549 551.212C470.399 551.212 471.1 551.488 471.652 552.04C472.226 552.568 472.514 553.235 472.514 554.039C472.514 554.844 472.226 555.522 471.652 556.073C471.1 556.602 470.399 556.866 469.549 556.866ZM471.928 559.142V578.241H467.101V559.142H471.928ZM494.451 568.278C494.451 568.967 494.405 569.588 494.313 570.139H480.351C480.466 571.518 480.948 572.599 481.799 573.38C482.649 574.162 483.695 574.552 484.936 574.552C486.729 574.552 488.004 573.782 488.763 572.242H493.969C493.417 574.081 492.36 575.598 490.797 576.793C489.234 577.965 487.315 578.551 485.039 578.551C483.201 578.551 481.546 578.149 480.075 577.345C478.627 576.517 477.489 575.357 476.662 573.863C475.857 572.369 475.455 570.645 475.455 568.691C475.455 566.715 475.857 564.98 476.662 563.486C477.466 561.992 478.592 560.843 480.04 560.038C481.488 559.234 483.155 558.832 485.039 558.832C486.855 558.832 488.475 559.222 489.9 560.004C491.348 560.785 492.463 561.9 493.245 563.348C494.049 564.773 494.451 566.416 494.451 568.278ZM489.452 566.899C489.429 565.658 488.981 564.669 488.108 563.934C487.234 563.175 486.166 562.796 484.901 562.796C483.706 562.796 482.695 563.164 481.868 563.899C481.063 564.612 480.569 565.612 480.385 566.899H489.452ZM508.558 558.866C510.834 558.866 512.672 559.59 514.074 561.038C515.476 562.463 516.177 564.463 516.177 567.037V578.241H511.351V567.692C511.351 566.175 510.971 565.014 510.213 564.21C509.454 563.382 508.42 562.969 507.11 562.969C505.777 562.969 504.72 563.382 503.938 564.21C503.18 565.014 502.801 566.175 502.801 567.692V578.241H497.974V559.142H502.801V561.521C503.444 560.693 504.26 560.05 505.248 559.59C506.26 559.107 507.363 558.866 508.558 558.866ZM519.526 568.623C519.526 566.692 519.905 564.98 520.664 563.486C521.445 561.992 522.502 560.843 523.835 560.038C525.168 559.234 526.651 558.832 528.283 558.832C529.524 558.832 530.707 559.107 531.834 559.659C532.96 560.188 533.856 560.9 534.523 561.796V552.729H539.418V578.241H534.523V575.414C533.925 576.357 533.086 577.115 532.006 577.69C530.926 578.264 529.673 578.551 528.248 578.551C526.639 578.551 525.168 578.138 523.835 577.31C522.502 576.483 521.445 575.322 520.664 573.828C519.905 572.311 519.526 570.576 519.526 568.623ZM534.557 568.691C534.557 567.519 534.327 566.52 533.868 565.692C533.408 564.842 532.787 564.198 532.006 563.762C531.225 563.302 530.386 563.072 529.489 563.072C528.593 563.072 527.766 563.29 527.007 563.727C526.249 564.164 525.628 564.807 525.145 565.658C524.686 566.485 524.456 567.473 524.456 568.623C524.456 569.772 524.686 570.783 525.145 571.656C525.628 572.507 526.249 573.162 527.007 573.621C527.789 574.081 528.616 574.311 529.489 574.311C530.386 574.311 531.225 574.093 532.006 573.656C532.787 573.196 533.408 572.553 533.868 571.725C534.327 570.875 534.557 569.864 534.557 568.691ZM548.959 552.729V578.241H544.132V552.729H548.959ZM572 559.142L560.174 587.274H555.038L559.175 577.759L551.521 559.142H556.934L561.864 572.484L566.863 559.142H572Z" fill="black"/>
<defs>
<clipPath id="clip0_23_1006">
<rect width="105.468" height="105.468" fill="white" transform="translate(74.5151 406)"/>
</clipPath>
</defs>
</svg>
