<svg width="334" height="609" viewBox="0 0 334 609" fill="none" xmlns="http://www.w3.org/2000/svg">
<path d="M87.3978 9.3486C85.336 3.73276 79.9891 0 74.0067 0H13C5.8203 0 0 5.82031 0 13V595.5C0 602.68 5.82029 608.5 13 608.5H321C328.18 608.5 334 602.68 334 595.5V31.6972C334 24.5175 328.18 18.6972 321 18.6972H100.789C94.8066 18.6972 89.4597 14.9644 87.3978 9.3486V9.3486Z" fill="#232323"/>
<path d="M111.324 86.1222C110.502 86.1222 109.797 85.9511 109.211 85.6091C108.633 85.2589 108.185 84.7703 107.867 84.1432C107.55 83.508 107.391 82.7629 107.391 81.9078C107.391 81.0527 107.55 80.3116 107.867 79.6845C108.185 79.0493 108.633 78.5607 109.211 78.2186C109.797 77.8685 110.502 77.6934 111.324 77.6934C112.139 77.6934 112.839 77.8685 113.425 78.2186C114.012 78.5607 114.46 79.0493 114.769 79.6845C115.087 80.3116 115.246 81.0527 115.246 81.9078C115.246 82.7629 115.087 83.508 114.769 84.1432C114.46 84.7703 114.012 85.2589 113.425 85.6091C112.839 85.9511 112.139 86.1222 111.324 86.1222ZM111.324 84.3509C111.789 84.3509 112.163 84.2817 112.448 84.1432C112.741 83.9966 112.953 83.7483 113.083 83.3981C113.222 83.0397 113.291 82.543 113.291 81.9078C113.291 81.2644 113.222 80.7676 113.083 80.4175C112.953 80.0673 112.741 79.823 112.448 79.6845C112.163 79.5379 111.789 79.4646 111.324 79.4646C110.852 79.4646 110.469 79.5379 110.176 79.6845C109.891 79.823 109.679 80.0673 109.541 80.4175C109.411 80.7676 109.345 81.2644 109.345 81.9078C109.345 82.543 109.411 83.0397 109.541 83.3981C109.679 83.7483 109.891 83.9966 110.176 84.1432C110.469 84.2817 110.852 84.3509 111.324 84.3509ZM122.37 86.1222C121.572 86.1222 120.904 85.9878 120.366 85.719C119.837 85.4503 119.438 85.0716 119.169 84.583C118.909 84.0862 118.778 83.4958 118.778 82.8117V77.8155H120.598V82.7873C120.598 83.1782 120.651 83.4877 120.757 83.7157C120.871 83.9437 121.054 84.1066 121.307 84.2043C121.559 84.302 121.914 84.3509 122.37 84.3509C122.818 84.3509 123.168 84.302 123.42 84.2043C123.681 84.1066 123.864 83.9437 123.97 83.7157C124.076 83.4877 124.129 83.1782 124.129 82.7873V77.8155H125.961V82.8117C125.961 83.4958 125.827 84.0862 125.558 84.583C125.289 85.0716 124.886 85.4503 124.349 85.719C123.819 85.9878 123.16 86.1222 122.37 86.1222ZM131.614 86H129.781V77.8155H133.544C134.195 77.8155 134.745 77.9132 135.193 78.1087C135.649 78.3041 135.995 78.5892 136.231 78.9638C136.467 79.3303 136.585 79.7782 136.585 80.3075C136.585 80.7473 136.512 81.13 136.366 81.4558C136.219 81.7734 135.991 82.0258 135.681 82.2132C135.38 82.3923 134.993 82.5063 134.521 82.5552V82.6773C134.871 82.7832 135.148 82.942 135.352 83.1538C135.555 83.3655 135.734 83.6302 135.889 83.9478L136.927 86H134.79L133.825 84.1066C133.703 83.8704 133.58 83.679 133.458 83.5324C133.344 83.3777 133.202 83.2678 133.031 83.2026C132.868 83.1293 132.64 83.0927 132.347 83.0927H131.614V86ZM131.614 79.4646V81.5779H133.629C134.061 81.5779 134.358 81.5006 134.521 81.3458C134.684 81.1911 134.765 80.9142 134.765 80.5152C134.765 80.1243 134.684 79.8515 134.521 79.6967C134.358 79.542 134.061 79.4646 133.629 79.4646H131.614ZM148.814 86.1222C148.016 86.1222 147.356 86.0163 146.835 85.8045C146.314 85.5928 145.927 85.2793 145.675 84.8639C145.422 84.4486 145.296 83.9396 145.296 83.337V83.1782H147.092V83.3003C147.092 83.6017 147.141 83.8378 147.238 84.0089C147.336 84.1717 147.511 84.2898 147.764 84.3631C148.024 84.4283 148.403 84.4608 148.9 84.4608C149.421 84.4608 149.767 84.4038 149.938 84.2898C150.109 84.1758 150.195 83.9803 150.195 83.7035C150.195 83.5162 150.166 83.3655 150.109 83.2515C150.06 83.1375 149.946 83.0438 149.767 82.9705C149.588 82.8891 149.307 82.8199 148.924 82.7629L147.483 82.5063C146.962 82.4167 146.534 82.2702 146.2 82.0666C145.874 81.8548 145.634 81.5942 145.479 81.2848C145.333 80.9672 145.259 80.5966 145.259 80.1731C145.259 79.7497 145.365 79.3506 145.577 78.976C145.797 78.6014 146.147 78.296 146.628 78.0598C147.116 77.8155 147.747 77.6934 148.521 77.6934C149.303 77.6934 149.934 77.8155 150.414 78.0598C150.903 78.3042 151.261 78.6421 151.489 79.0737C151.717 79.4972 151.831 79.9818 151.831 80.5274V80.6251H150.024V80.4907C150.024 80.2057 149.979 79.9818 149.889 79.8189C149.8 79.656 149.641 79.5379 149.413 79.4646C149.185 79.3913 148.867 79.3547 148.46 79.3547C147.939 79.3547 147.576 79.4158 147.373 79.5379C147.177 79.6519 147.08 79.8392 147.08 80.0998C147.08 80.2709 147.112 80.4093 147.177 80.5152C147.242 80.6129 147.356 80.6903 147.519 80.7473C147.69 80.8043 147.935 80.8654 148.252 80.9305L149.706 81.2115C150.276 81.3173 150.728 81.4884 151.062 81.7245C151.404 81.9526 151.648 82.2294 151.795 82.5552C151.941 82.8809 152.015 83.2433 152.015 83.6424C152.015 84.074 151.909 84.4812 151.697 84.8639C151.485 85.2386 151.147 85.5439 150.683 85.7801C150.219 86.0081 149.596 86.1222 148.814 86.1222ZM157.272 86H155.439V77.8155H157.272V86ZM161.682 86H155.952V84.3509H161.682V86ZM161.498 82.7018H155.952V81.0649H161.498V82.7018ZM161.682 79.4646H155.952V77.8155H161.682V79.4646ZM167.164 86H165.332V77.8155H169.095C169.746 77.8155 170.296 77.9132 170.744 78.1087C171.2 78.3041 171.546 78.5892 171.782 78.9638C172.018 79.3303 172.136 79.7782 172.136 80.3075C172.136 80.7473 172.063 81.13 171.916 81.4558C171.77 81.7734 171.542 82.0258 171.232 82.2132C170.931 82.3923 170.544 82.5063 170.072 82.5552V82.6773C170.422 82.7832 170.699 82.942 170.902 83.1538C171.106 83.3655 171.285 83.6302 171.44 83.9478L172.478 86H170.341L169.376 84.1066C169.253 83.8704 169.131 83.679 169.009 83.5324C168.895 83.3777 168.753 83.2678 168.581 83.2026C168.419 83.1293 168.191 83.0927 167.897 83.0927H167.164V86ZM167.164 79.4646V81.5779H169.18C169.612 81.5779 169.909 81.5006 170.072 81.3458C170.235 81.1911 170.316 80.9142 170.316 80.5152C170.316 80.1243 170.235 79.8515 170.072 79.6967C169.909 79.542 169.612 79.4646 169.18 79.4646H167.164ZM180.398 86H177.955L174.986 77.8155H177.051L179.14 83.9478H179.262L181.314 77.8155H183.366L180.398 86ZM188.334 86H186.501V77.8155H188.334V86ZM195.861 86.1222C195.039 86.1222 194.335 85.9511 193.748 85.6091C193.17 85.2589 192.722 84.7703 192.404 84.1432C192.095 83.508 191.94 82.7629 191.94 81.9078C191.94 81.0527 192.095 80.3116 192.404 79.6845C192.722 79.0493 193.17 78.5607 193.748 78.2186C194.335 77.8685 195.039 77.6934 195.861 77.6934C196.676 77.6934 197.356 77.8277 197.902 78.0965C198.455 78.3652 198.875 78.748 199.16 79.2448C199.445 79.7334 199.587 80.3157 199.587 80.9916V81.1015H197.633V81.0405C197.633 80.4541 197.498 80.0469 197.23 79.8189C196.961 79.5827 196.501 79.4646 195.849 79.4646C195.385 79.4646 195.01 79.5339 194.725 79.6723C194.44 79.8107 194.229 80.0551 194.09 80.4052C193.96 80.7554 193.895 81.2563 193.895 81.9078C193.895 82.5511 193.96 83.052 194.09 83.4103C194.229 83.7605 194.44 84.0048 194.725 84.1432C195.01 84.2817 195.385 84.3509 195.849 84.3509C196.501 84.3509 196.961 84.2369 197.23 84.0089C197.498 83.7727 197.633 83.3614 197.633 82.7751V82.714H199.587V82.8239C199.587 83.4999 199.445 84.0862 199.16 84.583C198.875 85.0716 198.455 85.4503 197.902 85.719C197.356 85.9878 196.676 86.1222 195.861 86.1222ZM204.994 86H203.161V77.8155H204.994V86ZM209.404 86H203.675V84.3509H209.404V86ZM209.22 82.7018H203.675V81.0649H209.22V82.7018ZM209.404 79.4646H203.675V77.8155H209.404V79.4646ZM216.489 86.1222C215.691 86.1222 215.031 86.0163 214.51 85.8045C213.989 85.5928 213.602 85.2793 213.349 84.8639C213.097 84.4486 212.971 83.9396 212.971 83.337V83.1782H214.766V83.3003C214.766 83.6017 214.815 83.8378 214.913 84.0089C215.011 84.1717 215.186 84.2898 215.438 84.3631C215.699 84.4283 216.078 84.4608 216.574 84.4608C217.096 84.4608 217.442 84.4038 217.613 84.2898C217.784 84.1758 217.869 83.9803 217.869 83.7035C217.869 83.5162 217.841 83.3655 217.784 83.2515C217.735 83.1375 217.621 83.0438 217.442 82.9705C217.262 82.8891 216.982 82.8199 216.599 82.7629L215.157 82.5063C214.636 82.4167 214.209 82.2702 213.875 82.0666C213.549 81.8548 213.309 81.5942 213.154 81.2848C213.007 80.9672 212.934 80.5966 212.934 80.1731C212.934 79.7497 213.04 79.3506 213.252 78.976C213.472 78.6014 213.822 78.296 214.302 78.0598C214.791 77.8155 215.422 77.6934 216.196 77.6934C216.977 77.6934 217.609 77.8155 218.089 78.0598C218.578 78.3042 218.936 78.6421 219.164 79.0737C219.392 79.4972 219.506 79.9818 219.506 80.5274V80.6251H217.698V80.4907C217.698 80.2057 217.653 79.9818 217.564 79.8189C217.474 79.656 217.315 79.5379 217.087 79.4646C216.859 79.3913 216.542 79.3547 216.135 79.3547C215.613 79.3547 215.251 79.4158 215.047 79.5379C214.852 79.6519 214.754 79.8392 214.754 80.0998C214.754 80.2709 214.787 80.4093 214.852 80.5152C214.917 80.6129 215.031 80.6903 215.194 80.7473C215.365 80.8043 215.609 80.8654 215.927 80.9305L217.381 81.2115C217.951 81.3173 218.403 81.4884 218.737 81.7245C219.079 81.9526 219.323 82.2294 219.469 82.5552C219.616 82.8809 219.689 83.2433 219.689 83.6424C219.689 84.074 219.583 84.4812 219.372 84.8639C219.16 85.2386 218.822 85.5439 218.358 85.7801C217.894 86.0081 217.271 86.1222 216.489 86.1222Z" fill="#FFF5E1"/>
</svg>
